G04 #@! TF.GenerationSoftware,KiCad,Pcbnew,(5.0.0)*
G04 #@! TF.CreationDate,2018-12-12T16:38:56+01:00*
G04 #@! TF.ProjectId,Modelwagonlight,4D6F64656C7761676F6E6C696768742E,rev?*
G04 #@! TF.SameCoordinates,Original*
G04 #@! TF.FileFunction,Soldermask,Bot*
G04 #@! TF.FilePolarity,Negative*
%FSLAX46Y46*%
G04 Gerber Fmt 4.6, Leading zero omitted, Abs format (unit mm)*
G04 Created by KiCad (PCBNEW (5.0.0)) date 12/12/18 16:38:56*
%MOMM*%
%LPD*%
G01*
G04 APERTURE LIST*
%ADD10C,0.150000*%
%ADD11R,2.000000X2.000000*%
%ADD12C,2.000000*%
G04 APERTURE END LIST*
D10*
G04 #@! TO.C,J2*
G36*
X190386000Y-115200000D02*
X195186000Y-115200000D01*
X195186000Y-113400000D01*
X190386000Y-113400000D01*
X190386000Y-115200000D01*
G37*
X190386000Y-115200000D02*
X195186000Y-115200000D01*
X195186000Y-113400000D01*
X190386000Y-113400000D01*
X190386000Y-115200000D01*
G04 #@! TO.C,J1*
G36*
X195186000Y-119264000D02*
X190386000Y-119264000D01*
X190386000Y-117464000D01*
X195186000Y-117464000D01*
X195186000Y-119264000D01*
G37*
X195186000Y-119264000D02*
X190386000Y-119264000D01*
X190386000Y-117464000D01*
X195186000Y-117464000D01*
X195186000Y-119264000D01*
G04 #@! TO.C,J4*
G36*
X202068000Y-116980000D02*
X202068000Y-121780000D01*
X200268000Y-121780000D01*
X200268000Y-116980000D01*
X202068000Y-116980000D01*
G37*
X202068000Y-116980000D02*
X202068000Y-121780000D01*
X200268000Y-121780000D01*
X200268000Y-116980000D01*
X202068000Y-116980000D01*
G04 #@! TO.C,J3*
G36*
X199020000Y-116980000D02*
X199020000Y-121780000D01*
X197220000Y-121780000D01*
X197220000Y-116980000D01*
X199020000Y-116980000D01*
G37*
X199020000Y-116980000D02*
X199020000Y-121780000D01*
X197220000Y-121780000D01*
X197220000Y-116980000D01*
X199020000Y-116980000D01*
G04 #@! TD*
D11*
G04 #@! TO.C,C1*
X198120000Y-115824000D03*
D12*
X198120000Y-113324000D03*
G04 #@! TD*
D11*
G04 #@! TO.C,C2*
X203454000Y-119938800D03*
D12*
X203454000Y-117438800D03*
G04 #@! TD*
M02*
