G04 #@! TF.GenerationSoftware,KiCad,Pcbnew,(5.0.0)*
G04 #@! TF.CreationDate,2018-12-12T16:38:56+01:00*
G04 #@! TF.ProjectId,Modelwagonlight,4D6F64656C7761676F6E6C696768742E,rev?*
G04 #@! TF.SameCoordinates,Original*
G04 #@! TF.FileFunction,Copper,L2,Bot,Signal*
G04 #@! TF.FilePolarity,Positive*
%FSLAX46Y46*%
G04 Gerber Fmt 4.6, Leading zero omitted, Abs format (unit mm)*
G04 Created by KiCad (PCBNEW (5.0.0)) date 12/12/18 16:38:56*
%MOMM*%
%LPD*%
G01*
G04 APERTURE LIST*
G04 #@! TA.AperFunction,Conductor*
%ADD10R,5.000000X2.000000*%
G04 #@! TD*
G04 #@! TA.AperFunction,Conductor*
%ADD11R,2.000000X5.000000*%
G04 #@! TD*
G04 #@! TA.AperFunction,ComponentPad*
%ADD12R,1.600000X1.600000*%
G04 #@! TD*
G04 #@! TA.AperFunction,ComponentPad*
%ADD13C,1.600000*%
G04 #@! TD*
G04 #@! TA.AperFunction,ViaPad*
%ADD14C,1.000000*%
G04 #@! TD*
G04 #@! TA.AperFunction,Conductor*
%ADD15C,0.500000*%
G04 #@! TD*
G04 #@! TA.AperFunction,Conductor*
%ADD16C,0.254000*%
G04 #@! TD*
G04 APERTURE END LIST*
D10*
G04 #@! TO.N,Net-(D2-Pad2)*
G04 #@! TO.C,J2*
X192786000Y-114300000D03*
G04 #@! TD*
G04 #@! TO.N,Net-(J1-Pad1)*
G04 #@! TO.C,J1*
X192786000Y-118364000D03*
G04 #@! TD*
D11*
G04 #@! TO.N,Net-(C3-Pad1)*
G04 #@! TO.C,J4*
X201168000Y-119380000D03*
G04 #@! TD*
G04 #@! TO.N,Net-(C1-Pad1)*
G04 #@! TO.C,J3*
X198120000Y-119380000D03*
G04 #@! TD*
D12*
G04 #@! TO.P,C1,1*
G04 #@! TO.N,Net-(C1-Pad1)*
X198120000Y-115824000D03*
D13*
G04 #@! TO.P,C1,2*
G04 #@! TO.N,Net-(C1-Pad2)*
X198120000Y-113324000D03*
G04 #@! TD*
D12*
G04 #@! TO.P,C2,1*
G04 #@! TO.N,Net-(C2-Pad1)*
X203454000Y-119938800D03*
D13*
G04 #@! TO.P,C2,2*
G04 #@! TO.N,Net-(C1-Pad2)*
X203454000Y-117438800D03*
G04 #@! TD*
D14*
G04 #@! TO.N,Net-(C1-Pad1)*
X195859400Y-121056400D03*
X198120000Y-115824000D03*
G04 #@! TO.N,Net-(C1-Pad2)*
X206324200Y-118414800D03*
X212090000Y-117348000D03*
X213614000Y-117348000D03*
X213614000Y-118821200D03*
X212090000Y-118821200D03*
X210566000Y-118821200D03*
X210566000Y-117348000D03*
G04 #@! TO.N,Net-(D2-Pad2)*
X196291200Y-113157000D03*
G04 #@! TO.N,Net-(J1-Pad1)*
X196062600Y-116408200D03*
G04 #@! TO.N,Net-(C3-Pad1)*
X201168000Y-114554000D03*
G04 #@! TD*
D15*
G04 #@! TO.N,Net-(C1-Pad1)*
X195859400Y-121056400D02*
X197535800Y-119380000D01*
X197535800Y-119380000D02*
X198120000Y-119380000D01*
X198120000Y-115824000D02*
X198120000Y-119380000D01*
G04 #@! TO.N,Net-(C1-Pad2)*
X210566000Y-117348000D02*
X212090000Y-117348000D01*
X213614000Y-117348000D02*
X213614000Y-118821200D01*
X212090000Y-118821200D02*
X210566000Y-118821200D01*
G04 #@! TO.N,Net-(D2-Pad2)*
X196291200Y-113157000D02*
X194208400Y-113157000D01*
X194208400Y-113157000D02*
X193065400Y-114300000D01*
X193065400Y-114300000D02*
X192786000Y-114300000D01*
G04 #@! TO.N,Net-(J1-Pad1)*
X192786000Y-118364000D02*
X194741800Y-116408200D01*
X194741800Y-116408200D02*
X196062600Y-116408200D01*
G04 #@! TO.N,Net-(C3-Pad1)*
X201168000Y-119380000D02*
X201168000Y-114554000D01*
G04 #@! TD*
D16*
G04 #@! TO.N,Net-(C1-Pad2)*
G36*
X214290001Y-121290000D02*
X204572041Y-121290000D01*
X204711809Y-121196609D01*
X204852157Y-120986565D01*
X204901440Y-120738800D01*
X204901440Y-119138800D01*
X204852157Y-118891035D01*
X204711809Y-118680991D01*
X204501765Y-118540643D01*
X204267813Y-118494107D01*
X204282139Y-118446545D01*
X203454000Y-117618405D01*
X203439858Y-117632548D01*
X203260252Y-117452942D01*
X203274395Y-117438800D01*
X203633605Y-117438800D01*
X204461745Y-118266939D01*
X204707864Y-118192805D01*
X204900965Y-117655577D01*
X204873778Y-117085346D01*
X204707864Y-116684795D01*
X204461745Y-116610661D01*
X203633605Y-117438800D01*
X203274395Y-117438800D01*
X203260252Y-117424658D01*
X203439858Y-117245052D01*
X203454000Y-117259195D01*
X204282139Y-116431055D01*
X204208005Y-116184936D01*
X203670777Y-115991835D01*
X203100546Y-116019022D01*
X202699995Y-116184936D01*
X202627685Y-116424999D01*
X202625809Y-116422191D01*
X202599258Y-116404450D01*
X202510986Y-116316178D01*
X202493428Y-116333736D01*
X202415765Y-116281843D01*
X202168000Y-116232560D01*
X202053000Y-116232560D01*
X202053000Y-115274133D01*
X202130207Y-115196926D01*
X202303000Y-114779766D01*
X202303000Y-114328234D01*
X202130207Y-113911074D01*
X201810926Y-113591793D01*
X201393766Y-113419000D01*
X200942234Y-113419000D01*
X200525074Y-113591793D01*
X200205793Y-113911074D01*
X200033000Y-114328234D01*
X200033000Y-114427000D01*
X199169497Y-114427000D01*
X199167765Y-114425843D01*
X198933813Y-114379307D01*
X198948139Y-114331745D01*
X198247000Y-113630605D01*
X198247000Y-113324000D01*
X198299605Y-113324000D01*
X199127745Y-114152139D01*
X199373864Y-114078005D01*
X199566965Y-113540777D01*
X199539778Y-112970546D01*
X199373864Y-112569995D01*
X199127745Y-112495861D01*
X198299605Y-113324000D01*
X198247000Y-113324000D01*
X198247000Y-113017395D01*
X198948139Y-112316255D01*
X198874005Y-112070136D01*
X198336777Y-111877035D01*
X198247000Y-111881315D01*
X198247000Y-111710000D01*
X214290000Y-111710000D01*
X214290001Y-121290000D01*
X214290001Y-121290000D01*
G37*
X214290001Y-121290000D02*
X204572041Y-121290000D01*
X204711809Y-121196609D01*
X204852157Y-120986565D01*
X204901440Y-120738800D01*
X204901440Y-119138800D01*
X204852157Y-118891035D01*
X204711809Y-118680991D01*
X204501765Y-118540643D01*
X204267813Y-118494107D01*
X204282139Y-118446545D01*
X203454000Y-117618405D01*
X203439858Y-117632548D01*
X203260252Y-117452942D01*
X203274395Y-117438800D01*
X203633605Y-117438800D01*
X204461745Y-118266939D01*
X204707864Y-118192805D01*
X204900965Y-117655577D01*
X204873778Y-117085346D01*
X204707864Y-116684795D01*
X204461745Y-116610661D01*
X203633605Y-117438800D01*
X203274395Y-117438800D01*
X203260252Y-117424658D01*
X203439858Y-117245052D01*
X203454000Y-117259195D01*
X204282139Y-116431055D01*
X204208005Y-116184936D01*
X203670777Y-115991835D01*
X203100546Y-116019022D01*
X202699995Y-116184936D01*
X202627685Y-116424999D01*
X202625809Y-116422191D01*
X202599258Y-116404450D01*
X202510986Y-116316178D01*
X202493428Y-116333736D01*
X202415765Y-116281843D01*
X202168000Y-116232560D01*
X202053000Y-116232560D01*
X202053000Y-115274133D01*
X202130207Y-115196926D01*
X202303000Y-114779766D01*
X202303000Y-114328234D01*
X202130207Y-113911074D01*
X201810926Y-113591793D01*
X201393766Y-113419000D01*
X200942234Y-113419000D01*
X200525074Y-113591793D01*
X200205793Y-113911074D01*
X200033000Y-114328234D01*
X200033000Y-114427000D01*
X199169497Y-114427000D01*
X199167765Y-114425843D01*
X198933813Y-114379307D01*
X198948139Y-114331745D01*
X198247000Y-113630605D01*
X198247000Y-113324000D01*
X198299605Y-113324000D01*
X199127745Y-114152139D01*
X199373864Y-114078005D01*
X199566965Y-113540777D01*
X199539778Y-112970546D01*
X199373864Y-112569995D01*
X199127745Y-112495861D01*
X198299605Y-113324000D01*
X198247000Y-113324000D01*
X198247000Y-113017395D01*
X198948139Y-112316255D01*
X198874005Y-112070136D01*
X198336777Y-111877035D01*
X198247000Y-111881315D01*
X198247000Y-111710000D01*
X214290000Y-111710000D01*
X214290001Y-121290000D01*
G04 #@! TD*
M02*
