G04 #@! TF.GenerationSoftware,KiCad,Pcbnew,(5.0.0)*
G04 #@! TF.CreationDate,2018-12-12T14:56:24+01:00*
G04 #@! TF.ProjectId,Modelwagonlight,4D6F64656C7761676F6E6C696768742E,rev?*
G04 #@! TF.SameCoordinates,Original*
G04 #@! TF.FileFunction,Copper,L1,Top,Signal*
G04 #@! TF.FilePolarity,Positive*
%FSLAX46Y46*%
G04 Gerber Fmt 4.6, Leading zero omitted, Abs format (unit mm)*
G04 Created by KiCad (PCBNEW (5.0.0)) date 12/12/18 14:56:24*
%MOMM*%
%LPD*%
G01*
G04 APERTURE LIST*
G04 #@! TA.AperFunction,SMDPad,CuDef*
%ADD10R,0.508000X1.143000*%
G04 #@! TD*
G04 #@! TA.AperFunction,ComponentPad*
%ADD11R,1.600000X1.600000*%
G04 #@! TD*
G04 #@! TA.AperFunction,ComponentPad*
%ADD12C,1.600000*%
G04 #@! TD*
G04 #@! TA.AperFunction,SMDPad,CuDef*
%ADD13R,0.900000X1.700000*%
G04 #@! TD*
G04 #@! TA.AperFunction,SMDPad,CuDef*
%ADD14R,1.700000X0.900000*%
G04 #@! TD*
G04 #@! TA.AperFunction,SMDPad,CuDef*
%ADD15R,1.200000X0.900000*%
G04 #@! TD*
G04 #@! TA.AperFunction,SMDPad,CuDef*
%ADD16R,1.000000X1.600000*%
G04 #@! TD*
G04 #@! TA.AperFunction,SMDPad,CuDef*
%ADD17R,1.600000X1.000000*%
G04 #@! TD*
G04 #@! TA.AperFunction,ViaPad*
%ADD18C,1.000000*%
G04 #@! TD*
G04 #@! TA.AperFunction,Conductor*
%ADD19C,0.500000*%
G04 #@! TD*
G04 #@! TA.AperFunction,Conductor*
%ADD20C,0.254000*%
G04 #@! TD*
G04 APERTURE END LIST*
D10*
G04 #@! TO.P,U1,8*
G04 #@! TO.N,Net-(C3-Pad1)*
X210185000Y-114681000D03*
G04 #@! TO.P,U1,7*
G04 #@! TO.N,Net-(C2-Pad1)*
X211455000Y-114681000D03*
G04 #@! TO.P,U1,6*
G04 #@! TO.N,Net-(C1-Pad2)*
X212725000Y-114681000D03*
G04 #@! TO.P,U1,5*
X213995000Y-114681000D03*
G04 #@! TO.P,U1,4*
X213995000Y-121031000D03*
G04 #@! TO.P,U1,3*
X212725000Y-121031000D03*
G04 #@! TO.P,U1,2*
X211455000Y-121031000D03*
G04 #@! TO.P,U1,1*
G04 #@! TO.N,Net-(C2-Pad1)*
X210185000Y-121031000D03*
G04 #@! TD*
D11*
G04 #@! TO.P,C1,1*
G04 #@! TO.N,Net-(C1-Pad1)*
X198120000Y-115824000D03*
D12*
G04 #@! TO.P,C1,2*
G04 #@! TO.N,Net-(C1-Pad2)*
X198120000Y-113324000D03*
G04 #@! TD*
D11*
G04 #@! TO.P,C2,1*
G04 #@! TO.N,Net-(C2-Pad1)*
X203454000Y-119938800D03*
D12*
G04 #@! TO.P,C2,2*
G04 #@! TO.N,Net-(C1-Pad2)*
X203454000Y-117438800D03*
G04 #@! TD*
D13*
G04 #@! TO.P,R1,1*
G04 #@! TO.N,Net-(J1-Pad1)*
X198755000Y-119354600D03*
G04 #@! TO.P,R1,2*
G04 #@! TO.N,Net-(D1-Pad2)*
X195855000Y-119354600D03*
G04 #@! TD*
D14*
G04 #@! TO.P,R4,1*
G04 #@! TO.N,Net-(C1-Pad2)*
X203200000Y-111834000D03*
G04 #@! TO.P,R4,2*
G04 #@! TO.N,Net-(C2-Pad1)*
X203200000Y-114734000D03*
G04 #@! TD*
G04 #@! TO.P,R5,1*
G04 #@! TO.N,Net-(C1-Pad2)*
X205486000Y-111834000D03*
G04 #@! TO.P,R5,2*
G04 #@! TO.N,Net-(C2-Pad1)*
X205486000Y-114734000D03*
G04 #@! TD*
G04 #@! TO.P,R6,1*
G04 #@! TO.N,Net-(C1-Pad2)*
X207772000Y-111834000D03*
G04 #@! TO.P,R6,2*
G04 #@! TO.N,Net-(C2-Pad1)*
X207772000Y-114734000D03*
G04 #@! TD*
D15*
G04 #@! TO.P,D1,1*
G04 #@! TO.N,Net-(C1-Pad1)*
X193548000Y-121055400D03*
G04 #@! TO.P,D1,2*
G04 #@! TO.N,Net-(D1-Pad2)*
X193548000Y-117755400D03*
G04 #@! TD*
G04 #@! TO.P,D2,1*
G04 #@! TO.N,Net-(C1-Pad1)*
X191262000Y-121055400D03*
G04 #@! TO.P,D2,2*
G04 #@! TO.N,Net-(D2-Pad2)*
X191262000Y-117755400D03*
G04 #@! TD*
G04 #@! TO.P,D3,1*
G04 #@! TO.N,Net-(D1-Pad2)*
X193548000Y-115188000D03*
G04 #@! TO.P,D3,2*
G04 #@! TO.N,Net-(C1-Pad2)*
X193548000Y-111888000D03*
G04 #@! TD*
G04 #@! TO.P,D4,1*
G04 #@! TO.N,Net-(D2-Pad2)*
X191262000Y-115188000D03*
G04 #@! TO.P,D4,2*
G04 #@! TO.N,Net-(C1-Pad2)*
X191262000Y-111888000D03*
G04 #@! TD*
D16*
G04 #@! TO.P,C3,1*
G04 #@! TO.N,Net-(C3-Pad1)*
X210183600Y-112801400D03*
G04 #@! TO.P,C3,2*
G04 #@! TO.N,Net-(C1-Pad2)*
X213183600Y-112801400D03*
G04 #@! TD*
D17*
G04 #@! TO.P,C4,1*
G04 #@! TO.N,Net-(C2-Pad1)*
X208051400Y-119762400D03*
G04 #@! TO.P,C4,2*
G04 #@! TO.N,Net-(C1-Pad2)*
X208051400Y-116762400D03*
G04 #@! TD*
D18*
G04 #@! TO.N,Net-(C1-Pad1)*
X195859400Y-121056400D03*
X198120000Y-115824000D03*
G04 #@! TO.N,Net-(C1-Pad2)*
X206324200Y-118414800D03*
X212090000Y-117348000D03*
X213614000Y-117348000D03*
X213614000Y-118821200D03*
X212090000Y-118821200D03*
X210566000Y-118821200D03*
X210566000Y-117348000D03*
G04 #@! TO.N,Net-(D2-Pad2)*
X196291200Y-113157000D03*
G04 #@! TO.N,Net-(J1-Pad1)*
X196062600Y-116408200D03*
G04 #@! TO.N,Net-(C3-Pad1)*
X201168000Y-114554000D03*
G04 #@! TD*
D19*
G04 #@! TO.N,Net-(C1-Pad1)*
X193548000Y-121055400D02*
X195858400Y-121055400D01*
X195858400Y-121055400D02*
X195859400Y-121056400D01*
X193549000Y-121056400D02*
X193548000Y-121055400D01*
X191262000Y-121055400D02*
X193548000Y-121055400D01*
G04 #@! TO.N,Net-(C1-Pad2)*
X213995000Y-121031000D02*
X213995000Y-119888000D01*
X213995000Y-119888000D02*
X212725000Y-119888000D01*
X211455000Y-121031000D02*
X211455000Y-119888000D01*
X212725000Y-119888000D02*
X212725000Y-121031000D01*
X211455000Y-119888000D02*
X212725000Y-119888000D01*
X212725000Y-114681000D02*
X212725000Y-116382800D01*
X213995000Y-116433600D02*
X213995000Y-114681000D01*
X212775800Y-116433600D02*
X213995000Y-116433600D01*
X212725000Y-116382800D02*
X212775800Y-116433600D01*
X212725000Y-114681000D02*
X212725000Y-113260000D01*
X212725000Y-113260000D02*
X213183600Y-112801400D01*
X208051400Y-116762400D02*
X208051400Y-118414800D01*
X208051400Y-118414800D02*
X206324200Y-118414800D01*
X212090000Y-117348000D02*
X213614000Y-117348000D01*
X213614000Y-118821200D02*
X212090000Y-118821200D01*
X209980400Y-116762400D02*
X210566000Y-117348000D01*
X208051400Y-116762400D02*
X209980400Y-116762400D01*
X207772000Y-111834000D02*
X208866400Y-111834000D01*
X211786600Y-111404400D02*
X213183600Y-112801400D01*
X209296000Y-111404400D02*
X211786600Y-111404400D01*
X208866400Y-111834000D02*
X209296000Y-111404400D01*
X203454000Y-117438800D02*
X202234800Y-117438800D01*
X202234800Y-117438800D02*
X198120000Y-113324000D01*
X203454000Y-117642000D02*
X203443200Y-117652800D01*
X207772000Y-111834000D02*
X207774200Y-111836200D01*
X203200000Y-111834000D02*
X205486000Y-111834000D01*
X205486000Y-111834000D02*
X207772000Y-111834000D01*
X198120000Y-113324000D02*
X198120000Y-111888000D01*
X191262000Y-111888000D02*
X193548000Y-111888000D01*
X193548000Y-111888000D02*
X198120000Y-111888000D01*
X198120000Y-111888000D02*
X203146000Y-111888000D01*
X203146000Y-111888000D02*
X203200000Y-111834000D01*
G04 #@! TO.N,Net-(D1-Pad2)*
X193548000Y-115188000D02*
X193548000Y-117755400D01*
X195855000Y-118232600D02*
X195855000Y-119354600D01*
X193548000Y-117755400D02*
X195377800Y-117755400D01*
X195377800Y-117755400D02*
X195855000Y-118232600D01*
G04 #@! TO.N,Net-(D2-Pad2)*
X191262000Y-115188000D02*
X191262000Y-114147600D01*
X191262000Y-114147600D02*
X192252600Y-113157000D01*
X192252600Y-113157000D02*
X196291200Y-113157000D01*
X191262000Y-115188000D02*
X191262000Y-117755400D01*
G04 #@! TO.N,Net-(J1-Pad1)*
X196062600Y-116662200D02*
X198755000Y-119354600D01*
X196062600Y-116408200D02*
X196062600Y-116662200D01*
G04 #@! TO.N,Net-(C2-Pad1)*
X205003400Y-115747800D02*
X203225400Y-115747800D01*
X203200000Y-115722400D02*
X203200000Y-114734000D01*
X203225400Y-115747800D02*
X203200000Y-115722400D01*
X207772000Y-114734000D02*
X207772000Y-115747800D01*
X207772000Y-115747800D02*
X207797400Y-115747800D01*
X208051400Y-121031000D02*
X208051400Y-119762400D01*
X205003400Y-119862600D02*
X205003400Y-120370600D01*
X205663800Y-121031000D02*
X208051400Y-121031000D01*
X208051400Y-121031000D02*
X210185000Y-121031000D01*
X205003400Y-120370600D02*
X205663800Y-121031000D01*
X205486000Y-114734000D02*
X205486000Y-115671600D01*
X205486000Y-115671600D02*
X205409800Y-115747800D01*
X211455000Y-114681000D02*
X211455000Y-115417600D01*
X211124800Y-115747800D02*
X207797400Y-115747800D01*
X211455000Y-115417600D02*
X211124800Y-115747800D01*
X207797400Y-115747800D02*
X205409800Y-115747800D01*
X205003400Y-115747800D02*
X205003400Y-119862600D01*
X205003400Y-119862600D02*
X205003400Y-119938800D01*
X205409800Y-115747800D02*
X205003400Y-115747800D01*
X203454000Y-119938800D02*
X205003400Y-119938800D01*
X207875000Y-119938800D02*
X208051400Y-119762400D01*
X203479400Y-119913400D02*
X203454000Y-119938800D01*
X205486000Y-114734000D02*
X207772000Y-114734000D01*
X203200000Y-114734000D02*
X205486000Y-114734000D01*
G04 #@! TO.N,Net-(C3-Pad1)*
X202438000Y-113284000D02*
X209701000Y-113284000D01*
X201168000Y-114554000D02*
X202438000Y-113284000D01*
X209701000Y-113284000D02*
X210183600Y-112801400D01*
X210183600Y-112801400D02*
X210183600Y-114679600D01*
X210183600Y-114679600D02*
X210185000Y-114681000D01*
G04 #@! TD*
D20*
G04 #@! TO.N,Net-(C1-Pad2)*
G36*
X212852000Y-115728750D02*
X213010750Y-115887500D01*
X213105309Y-115887500D01*
X213338698Y-115790827D01*
X213360000Y-115769525D01*
X213381302Y-115790827D01*
X213614691Y-115887500D01*
X213709250Y-115887500D01*
X213868000Y-115728750D01*
X213868000Y-114935000D01*
X214122000Y-114935000D01*
X214122000Y-115728750D01*
X214280750Y-115887500D01*
X214290000Y-115887500D01*
X214290001Y-119824500D01*
X214280750Y-119824500D01*
X214122000Y-119983250D01*
X214122000Y-120777000D01*
X213868000Y-120777000D01*
X213868000Y-119983250D01*
X213709250Y-119824500D01*
X213614691Y-119824500D01*
X213381302Y-119921173D01*
X213360000Y-119942475D01*
X213338698Y-119921173D01*
X213105309Y-119824500D01*
X213010750Y-119824500D01*
X212852000Y-119983250D01*
X212852000Y-120777000D01*
X212598000Y-120777000D01*
X212598000Y-119983250D01*
X212439250Y-119824500D01*
X212344691Y-119824500D01*
X212111302Y-119921173D01*
X212090000Y-119942475D01*
X212068698Y-119921173D01*
X211835309Y-119824500D01*
X211740750Y-119824500D01*
X211582000Y-119983250D01*
X211582000Y-120777000D01*
X211328000Y-120777000D01*
X211328000Y-119983250D01*
X211169250Y-119824500D01*
X211074691Y-119824500D01*
X210841302Y-119921173D01*
X210815268Y-119947207D01*
X210686765Y-119861343D01*
X210439000Y-119812060D01*
X209931000Y-119812060D01*
X209683235Y-119861343D01*
X209498840Y-119984553D01*
X209498840Y-119262400D01*
X209449557Y-119014635D01*
X209309209Y-118804591D01*
X209099165Y-118664243D01*
X208851400Y-118614960D01*
X207251400Y-118614960D01*
X207003635Y-118664243D01*
X206793591Y-118804591D01*
X206653243Y-119014635D01*
X206603960Y-119262400D01*
X206603960Y-120146000D01*
X206030379Y-120146000D01*
X205892041Y-120007662D01*
X205905738Y-119938800D01*
X205888400Y-119851635D01*
X205888400Y-117048150D01*
X206616400Y-117048150D01*
X206616400Y-117388709D01*
X206713073Y-117622098D01*
X206891701Y-117800727D01*
X207125090Y-117897400D01*
X207765650Y-117897400D01*
X207924400Y-117738650D01*
X207924400Y-116889400D01*
X208178400Y-116889400D01*
X208178400Y-117738650D01*
X208337150Y-117897400D01*
X208977710Y-117897400D01*
X209211099Y-117800727D01*
X209389727Y-117622098D01*
X209486400Y-117388709D01*
X209486400Y-117048150D01*
X209327650Y-116889400D01*
X208178400Y-116889400D01*
X207924400Y-116889400D01*
X206775150Y-116889400D01*
X206616400Y-117048150D01*
X205888400Y-117048150D01*
X205888400Y-116632800D01*
X206772550Y-116632800D01*
X206775150Y-116635400D01*
X207697907Y-116635400D01*
X207772000Y-116650138D01*
X207846093Y-116635400D01*
X207924400Y-116635400D01*
X207924400Y-116632800D01*
X208178400Y-116632800D01*
X208178400Y-116635400D01*
X209327650Y-116635400D01*
X209330250Y-116632800D01*
X211037639Y-116632800D01*
X211124800Y-116650137D01*
X211211961Y-116632800D01*
X211211965Y-116632800D01*
X211470110Y-116581452D01*
X211762849Y-116385849D01*
X211812225Y-116311953D01*
X212019153Y-116105025D01*
X212093049Y-116055649D01*
X212235597Y-115842312D01*
X212344691Y-115887500D01*
X212439250Y-115887500D01*
X212598000Y-115728750D01*
X212598000Y-114935000D01*
X212852000Y-114935000D01*
X212852000Y-115728750D01*
X212852000Y-115728750D01*
G37*
X212852000Y-115728750D02*
X213010750Y-115887500D01*
X213105309Y-115887500D01*
X213338698Y-115790827D01*
X213360000Y-115769525D01*
X213381302Y-115790827D01*
X213614691Y-115887500D01*
X213709250Y-115887500D01*
X213868000Y-115728750D01*
X213868000Y-114935000D01*
X214122000Y-114935000D01*
X214122000Y-115728750D01*
X214280750Y-115887500D01*
X214290000Y-115887500D01*
X214290001Y-119824500D01*
X214280750Y-119824500D01*
X214122000Y-119983250D01*
X214122000Y-120777000D01*
X213868000Y-120777000D01*
X213868000Y-119983250D01*
X213709250Y-119824500D01*
X213614691Y-119824500D01*
X213381302Y-119921173D01*
X213360000Y-119942475D01*
X213338698Y-119921173D01*
X213105309Y-119824500D01*
X213010750Y-119824500D01*
X212852000Y-119983250D01*
X212852000Y-120777000D01*
X212598000Y-120777000D01*
X212598000Y-119983250D01*
X212439250Y-119824500D01*
X212344691Y-119824500D01*
X212111302Y-119921173D01*
X212090000Y-119942475D01*
X212068698Y-119921173D01*
X211835309Y-119824500D01*
X211740750Y-119824500D01*
X211582000Y-119983250D01*
X211582000Y-120777000D01*
X211328000Y-120777000D01*
X211328000Y-119983250D01*
X211169250Y-119824500D01*
X211074691Y-119824500D01*
X210841302Y-119921173D01*
X210815268Y-119947207D01*
X210686765Y-119861343D01*
X210439000Y-119812060D01*
X209931000Y-119812060D01*
X209683235Y-119861343D01*
X209498840Y-119984553D01*
X209498840Y-119262400D01*
X209449557Y-119014635D01*
X209309209Y-118804591D01*
X209099165Y-118664243D01*
X208851400Y-118614960D01*
X207251400Y-118614960D01*
X207003635Y-118664243D01*
X206793591Y-118804591D01*
X206653243Y-119014635D01*
X206603960Y-119262400D01*
X206603960Y-120146000D01*
X206030379Y-120146000D01*
X205892041Y-120007662D01*
X205905738Y-119938800D01*
X205888400Y-119851635D01*
X205888400Y-117048150D01*
X206616400Y-117048150D01*
X206616400Y-117388709D01*
X206713073Y-117622098D01*
X206891701Y-117800727D01*
X207125090Y-117897400D01*
X207765650Y-117897400D01*
X207924400Y-117738650D01*
X207924400Y-116889400D01*
X208178400Y-116889400D01*
X208178400Y-117738650D01*
X208337150Y-117897400D01*
X208977710Y-117897400D01*
X209211099Y-117800727D01*
X209389727Y-117622098D01*
X209486400Y-117388709D01*
X209486400Y-117048150D01*
X209327650Y-116889400D01*
X208178400Y-116889400D01*
X207924400Y-116889400D01*
X206775150Y-116889400D01*
X206616400Y-117048150D01*
X205888400Y-117048150D01*
X205888400Y-116632800D01*
X206772550Y-116632800D01*
X206775150Y-116635400D01*
X207697907Y-116635400D01*
X207772000Y-116650138D01*
X207846093Y-116635400D01*
X207924400Y-116635400D01*
X207924400Y-116632800D01*
X208178400Y-116632800D01*
X208178400Y-116635400D01*
X209327650Y-116635400D01*
X209330250Y-116632800D01*
X211037639Y-116632800D01*
X211124800Y-116650137D01*
X211211961Y-116632800D01*
X211211965Y-116632800D01*
X211470110Y-116581452D01*
X211762849Y-116385849D01*
X211812225Y-116311953D01*
X212019153Y-116105025D01*
X212093049Y-116055649D01*
X212235597Y-115842312D01*
X212344691Y-115887500D01*
X212439250Y-115887500D01*
X212598000Y-115728750D01*
X212598000Y-114935000D01*
X212852000Y-114935000D01*
X212852000Y-115728750D01*
G04 #@! TD*
M02*
