G04 #@! TF.GenerationSoftware,KiCad,Pcbnew,(5.0.0)*
G04 #@! TF.CreationDate,2018-12-12T14:56:24+01:00*
G04 #@! TF.ProjectId,Modelwagonlight,4D6F64656C7761676F6E6C696768742E,rev?*
G04 #@! TF.SameCoordinates,Original*
G04 #@! TF.FileFunction,Legend,Top*
G04 #@! TF.FilePolarity,Positive*
%FSLAX46Y46*%
G04 Gerber Fmt 4.6, Leading zero omitted, Abs format (unit mm)*
G04 Created by KiCad (PCBNEW (5.0.0)) date 12/12/18 14:56:24*
%MOMM*%
%LPD*%
G01*
G04 APERTURE LIST*
%ADD10C,0.250000*%
%ADD11C,0.100000*%
%ADD12C,0.200000*%
%ADD13C,0.150000*%
%ADD14C,0.120000*%
%ADD15C,0.105000*%
G04 APERTURE END LIST*
D10*
X196524857Y-121356428D02*
X197286761Y-121356428D01*
X196905809Y-121737380D02*
X196905809Y-120975476D01*
X198239142Y-121737380D02*
X197762952Y-121737380D01*
X197762952Y-120737380D01*
X198572476Y-121213571D02*
X198905809Y-121213571D01*
X199048666Y-121737380D02*
X198572476Y-121737380D01*
X198572476Y-120737380D01*
X199048666Y-120737380D01*
X199477238Y-121737380D02*
X199477238Y-120737380D01*
X199715333Y-120737380D01*
X199858190Y-120785000D01*
X199953428Y-120880238D01*
X200001047Y-120975476D01*
X200048666Y-121165952D01*
X200048666Y-121308809D01*
X200001047Y-121499285D01*
X199953428Y-121594523D01*
X199858190Y-121689761D01*
X199715333Y-121737380D01*
X199477238Y-121737380D01*
X200477238Y-121356428D02*
X201239142Y-121356428D01*
D11*
X193728638Y-117032447D02*
X193728638Y-116382447D01*
X193883400Y-116382447D01*
X193976257Y-116413400D01*
X194038161Y-116475304D01*
X194069114Y-116537209D01*
X194100066Y-116661019D01*
X194100066Y-116753876D01*
X194069114Y-116877685D01*
X194038161Y-116939590D01*
X193976257Y-117001495D01*
X193883400Y-117032447D01*
X193728638Y-117032447D01*
X194719114Y-117032447D02*
X194347685Y-117032447D01*
X194533400Y-117032447D02*
X194533400Y-116382447D01*
X194471495Y-116475304D01*
X194409590Y-116537209D01*
X194347685Y-116568161D01*
X191417238Y-117032447D02*
X191417238Y-116382447D01*
X191572000Y-116382447D01*
X191664857Y-116413400D01*
X191726761Y-116475304D01*
X191757714Y-116537209D01*
X191788666Y-116661019D01*
X191788666Y-116753876D01*
X191757714Y-116877685D01*
X191726761Y-116939590D01*
X191664857Y-117001495D01*
X191572000Y-117032447D01*
X191417238Y-117032447D01*
X192036285Y-116444352D02*
X192067238Y-116413400D01*
X192129142Y-116382447D01*
X192283904Y-116382447D01*
X192345809Y-116413400D01*
X192376761Y-116444352D01*
X192407714Y-116506257D01*
X192407714Y-116568161D01*
X192376761Y-116661019D01*
X192005333Y-117032447D01*
X192407714Y-117032447D01*
X192534838Y-116600647D02*
X192534838Y-115950647D01*
X192689600Y-115950647D01*
X192782457Y-115981600D01*
X192844361Y-116043504D01*
X192875314Y-116105409D01*
X192906266Y-116229219D01*
X192906266Y-116322076D01*
X192875314Y-116445885D01*
X192844361Y-116507790D01*
X192782457Y-116569695D01*
X192689600Y-116600647D01*
X192534838Y-116600647D01*
X193122933Y-115950647D02*
X193525314Y-115950647D01*
X193308647Y-116198266D01*
X193401504Y-116198266D01*
X193463409Y-116229219D01*
X193494361Y-116260171D01*
X193525314Y-116322076D01*
X193525314Y-116476838D01*
X193494361Y-116538742D01*
X193463409Y-116569695D01*
X193401504Y-116600647D01*
X193215790Y-116600647D01*
X193153885Y-116569695D01*
X193122933Y-116538742D01*
X190172638Y-116600647D02*
X190172638Y-115950647D01*
X190327400Y-115950647D01*
X190420257Y-115981600D01*
X190482161Y-116043504D01*
X190513114Y-116105409D01*
X190544066Y-116229219D01*
X190544066Y-116322076D01*
X190513114Y-116445885D01*
X190482161Y-116507790D01*
X190420257Y-116569695D01*
X190327400Y-116600647D01*
X190172638Y-116600647D01*
X191101209Y-116167314D02*
X191101209Y-116600647D01*
X190946447Y-115919695D02*
X190791685Y-116383980D01*
X191194066Y-116383980D01*
D12*
X190652400Y-113919000D02*
X191770000Y-113919000D01*
X191770000Y-113919000D02*
X191820800Y-113919000D01*
X191262000Y-113919000D02*
X190652400Y-113309400D01*
X191262000Y-113919000D02*
X191871600Y-113309400D01*
X191871600Y-113309400D02*
X190652400Y-113309400D01*
X191262000Y-113309400D02*
X191262000Y-112750600D01*
X191262000Y-113919000D02*
X191262000Y-114376200D01*
X193522600Y-119735600D02*
X193522600Y-120192800D01*
X193522600Y-119126000D02*
X193522600Y-118567200D01*
X194132200Y-119126000D02*
X192913000Y-119126000D01*
X193522600Y-119735600D02*
X194132200Y-119126000D01*
X193522600Y-119735600D02*
X192913000Y-119126000D01*
X194030600Y-119735600D02*
X194081400Y-119735600D01*
X192913000Y-119735600D02*
X194030600Y-119735600D01*
X190677800Y-119735600D02*
X191795400Y-119735600D01*
X191795400Y-119735600D02*
X191846200Y-119735600D01*
X191287400Y-119735600D02*
X190677800Y-119126000D01*
X191287400Y-119735600D02*
X191897000Y-119126000D01*
X191897000Y-119126000D02*
X190677800Y-119126000D01*
X191287400Y-119126000D02*
X191287400Y-118567200D01*
X191287400Y-119735600D02*
X191287400Y-120192800D01*
X193548000Y-113919000D02*
X193548000Y-114376200D01*
X193548000Y-113309400D02*
X193548000Y-112750600D01*
X194157600Y-113309400D02*
X192938400Y-113309400D01*
X193548000Y-113919000D02*
X194157600Y-113309400D01*
X193548000Y-113919000D02*
X192938400Y-113309400D01*
X194056000Y-113919000D02*
X194106800Y-113919000D01*
X192938400Y-113919000D02*
X194056000Y-113919000D01*
D13*
G04 #@! TO.C,U1*
X209550000Y-115570000D02*
X214630000Y-115570000D01*
X214630000Y-115570000D02*
X214630000Y-120142000D01*
X214630000Y-120142000D02*
X209550000Y-120142000D01*
X209550000Y-120142000D02*
X209550000Y-115570000D01*
X209550000Y-117094000D02*
X210058000Y-117094000D01*
X210058000Y-117094000D02*
X210058000Y-118364000D01*
X210058000Y-118364000D02*
X209550000Y-118364000D01*
D14*
G04 #@! TO.C,C1*
X196940864Y-111556180D02*
G75*
G03X196940000Y-117591482I1179136J-3017820D01*
G01*
X199299136Y-111556180D02*
G75*
G02X199300000Y-117591482I-1179136J-3017820D01*
G01*
X199299136Y-111556180D02*
G75*
G03X196940000Y-111556518I-1179136J-3017820D01*
G01*
X194920000Y-114574000D02*
X201320000Y-114574000D01*
X194920000Y-114534000D02*
X201320000Y-114534000D01*
X194920000Y-114494000D02*
X201320000Y-114494000D01*
X194922000Y-114454000D02*
X201318000Y-114454000D01*
X194923000Y-114414000D02*
X201317000Y-114414000D01*
X194926000Y-114374000D02*
X201314000Y-114374000D01*
X194928000Y-114334000D02*
X201312000Y-114334000D01*
X194932000Y-114294000D02*
X197140000Y-114294000D01*
X199100000Y-114294000D02*
X201308000Y-114294000D01*
X194935000Y-114254000D02*
X197140000Y-114254000D01*
X199100000Y-114254000D02*
X201305000Y-114254000D01*
X194940000Y-114214000D02*
X197140000Y-114214000D01*
X199100000Y-114214000D02*
X201300000Y-114214000D01*
X194944000Y-114174000D02*
X197140000Y-114174000D01*
X199100000Y-114174000D02*
X201296000Y-114174000D01*
X194950000Y-114134000D02*
X197140000Y-114134000D01*
X199100000Y-114134000D02*
X201290000Y-114134000D01*
X194955000Y-114094000D02*
X197140000Y-114094000D01*
X199100000Y-114094000D02*
X201285000Y-114094000D01*
X194962000Y-114054000D02*
X197140000Y-114054000D01*
X199100000Y-114054000D02*
X201278000Y-114054000D01*
X194968000Y-114014000D02*
X197140000Y-114014000D01*
X199100000Y-114014000D02*
X201272000Y-114014000D01*
X194976000Y-113974000D02*
X197140000Y-113974000D01*
X199100000Y-113974000D02*
X201264000Y-113974000D01*
X194983000Y-113934000D02*
X197140000Y-113934000D01*
X199100000Y-113934000D02*
X201257000Y-113934000D01*
X194992000Y-113894000D02*
X197140000Y-113894000D01*
X199100000Y-113894000D02*
X201248000Y-113894000D01*
X195001000Y-113853000D02*
X197140000Y-113853000D01*
X199100000Y-113853000D02*
X201239000Y-113853000D01*
X195010000Y-113813000D02*
X197140000Y-113813000D01*
X199100000Y-113813000D02*
X201230000Y-113813000D01*
X195020000Y-113773000D02*
X197140000Y-113773000D01*
X199100000Y-113773000D02*
X201220000Y-113773000D01*
X195030000Y-113733000D02*
X197140000Y-113733000D01*
X199100000Y-113733000D02*
X201210000Y-113733000D01*
X195041000Y-113693000D02*
X197140000Y-113693000D01*
X199100000Y-113693000D02*
X201199000Y-113693000D01*
X195053000Y-113653000D02*
X197140000Y-113653000D01*
X199100000Y-113653000D02*
X201187000Y-113653000D01*
X195065000Y-113613000D02*
X197140000Y-113613000D01*
X199100000Y-113613000D02*
X201175000Y-113613000D01*
X195078000Y-113573000D02*
X197140000Y-113573000D01*
X199100000Y-113573000D02*
X201162000Y-113573000D01*
X195091000Y-113533000D02*
X197140000Y-113533000D01*
X199100000Y-113533000D02*
X201149000Y-113533000D01*
X195105000Y-113493000D02*
X197140000Y-113493000D01*
X199100000Y-113493000D02*
X201135000Y-113493000D01*
X195119000Y-113453000D02*
X197140000Y-113453000D01*
X199100000Y-113453000D02*
X201121000Y-113453000D01*
X195134000Y-113413000D02*
X197140000Y-113413000D01*
X199100000Y-113413000D02*
X201106000Y-113413000D01*
X195150000Y-113373000D02*
X197140000Y-113373000D01*
X199100000Y-113373000D02*
X201090000Y-113373000D01*
X195166000Y-113333000D02*
X197140000Y-113333000D01*
X199100000Y-113333000D02*
X201074000Y-113333000D01*
X195183000Y-113293000D02*
X197140000Y-113293000D01*
X199100000Y-113293000D02*
X201057000Y-113293000D01*
X195201000Y-113253000D02*
X197140000Y-113253000D01*
X199100000Y-113253000D02*
X201039000Y-113253000D01*
X195219000Y-113213000D02*
X197140000Y-113213000D01*
X199100000Y-113213000D02*
X201021000Y-113213000D01*
X195238000Y-113173000D02*
X197140000Y-113173000D01*
X199100000Y-113173000D02*
X201002000Y-113173000D01*
X195257000Y-113133000D02*
X197140000Y-113133000D01*
X199100000Y-113133000D02*
X200983000Y-113133000D01*
X195277000Y-113093000D02*
X197140000Y-113093000D01*
X199100000Y-113093000D02*
X200963000Y-113093000D01*
X195298000Y-113053000D02*
X197140000Y-113053000D01*
X199100000Y-113053000D02*
X200942000Y-113053000D01*
X195320000Y-113013000D02*
X197140000Y-113013000D01*
X199100000Y-113013000D02*
X200920000Y-113013000D01*
X195342000Y-112973000D02*
X197140000Y-112973000D01*
X199100000Y-112973000D02*
X200898000Y-112973000D01*
X195365000Y-112933000D02*
X197140000Y-112933000D01*
X199100000Y-112933000D02*
X200875000Y-112933000D01*
X195389000Y-112893000D02*
X197140000Y-112893000D01*
X199100000Y-112893000D02*
X200851000Y-112893000D01*
X195414000Y-112853000D02*
X197140000Y-112853000D01*
X199100000Y-112853000D02*
X200826000Y-112853000D01*
X195439000Y-112813000D02*
X197140000Y-112813000D01*
X199100000Y-112813000D02*
X200801000Y-112813000D01*
X195466000Y-112773000D02*
X197140000Y-112773000D01*
X199100000Y-112773000D02*
X200774000Y-112773000D01*
X195493000Y-112733000D02*
X197140000Y-112733000D01*
X199100000Y-112733000D02*
X200747000Y-112733000D01*
X195521000Y-112693000D02*
X197140000Y-112693000D01*
X199100000Y-112693000D02*
X200719000Y-112693000D01*
X195550000Y-112653000D02*
X197140000Y-112653000D01*
X199100000Y-112653000D02*
X200690000Y-112653000D01*
X195580000Y-112613000D02*
X197140000Y-112613000D01*
X199100000Y-112613000D02*
X200660000Y-112613000D01*
X195610000Y-112573000D02*
X197140000Y-112573000D01*
X199100000Y-112573000D02*
X200630000Y-112573000D01*
X195642000Y-112533000D02*
X197140000Y-112533000D01*
X199100000Y-112533000D02*
X200598000Y-112533000D01*
X195675000Y-112493000D02*
X197140000Y-112493000D01*
X199100000Y-112493000D02*
X200565000Y-112493000D01*
X195709000Y-112453000D02*
X197140000Y-112453000D01*
X199100000Y-112453000D02*
X200531000Y-112453000D01*
X195745000Y-112413000D02*
X197140000Y-112413000D01*
X199100000Y-112413000D02*
X200495000Y-112413000D01*
X195781000Y-112373000D02*
X197140000Y-112373000D01*
X199100000Y-112373000D02*
X200459000Y-112373000D01*
X195819000Y-112333000D02*
X200421000Y-112333000D01*
X195858000Y-112293000D02*
X200382000Y-112293000D01*
X195898000Y-112253000D02*
X200342000Y-112253000D01*
X195940000Y-112213000D02*
X200300000Y-112213000D01*
X195983000Y-112173000D02*
X200257000Y-112173000D01*
X196028000Y-112133000D02*
X200212000Y-112133000D01*
X196075000Y-112093000D02*
X200165000Y-112093000D01*
X196123000Y-112053000D02*
X200117000Y-112053000D01*
X196174000Y-112013000D02*
X200066000Y-112013000D01*
X196226000Y-111973000D02*
X200014000Y-111973000D01*
X196281000Y-111933000D02*
X199959000Y-111933000D01*
X196339000Y-111893000D02*
X199901000Y-111893000D01*
X196399000Y-111853000D02*
X199841000Y-111853000D01*
X196462000Y-111813000D02*
X199778000Y-111813000D01*
X196529000Y-111773000D02*
X199711000Y-111773000D01*
X196600000Y-111733000D02*
X199640000Y-111733000D01*
X196675000Y-111693000D02*
X199565000Y-111693000D01*
X196756000Y-111653000D02*
X199484000Y-111653000D01*
X196842000Y-111613000D02*
X199398000Y-111613000D01*
X196936000Y-111573000D02*
X199304000Y-111573000D01*
X197039000Y-111533000D02*
X199201000Y-111533000D01*
X197154000Y-111493000D02*
X199086000Y-111493000D01*
X197286000Y-111453000D02*
X198954000Y-111453000D01*
X197444000Y-111413000D02*
X198796000Y-111413000D01*
X197652000Y-111373000D02*
X198588000Y-111373000D01*
X198120000Y-118024000D02*
X198120000Y-116824000D01*
X197470000Y-117424000D02*
X198770000Y-117424000D01*
G04 #@! TO.C,C2*
X202274864Y-115670980D02*
G75*
G03X202274000Y-121706282I1179136J-3017820D01*
G01*
X204633136Y-115670980D02*
G75*
G02X204634000Y-121706282I-1179136J-3017820D01*
G01*
X204633136Y-115670980D02*
G75*
G03X202274000Y-115671318I-1179136J-3017820D01*
G01*
X200254000Y-118688800D02*
X206654000Y-118688800D01*
X200254000Y-118648800D02*
X206654000Y-118648800D01*
X200254000Y-118608800D02*
X206654000Y-118608800D01*
X200256000Y-118568800D02*
X206652000Y-118568800D01*
X200257000Y-118528800D02*
X206651000Y-118528800D01*
X200260000Y-118488800D02*
X206648000Y-118488800D01*
X200262000Y-118448800D02*
X206646000Y-118448800D01*
X200266000Y-118408800D02*
X202474000Y-118408800D01*
X204434000Y-118408800D02*
X206642000Y-118408800D01*
X200269000Y-118368800D02*
X202474000Y-118368800D01*
X204434000Y-118368800D02*
X206639000Y-118368800D01*
X200274000Y-118328800D02*
X202474000Y-118328800D01*
X204434000Y-118328800D02*
X206634000Y-118328800D01*
X200278000Y-118288800D02*
X202474000Y-118288800D01*
X204434000Y-118288800D02*
X206630000Y-118288800D01*
X200284000Y-118248800D02*
X202474000Y-118248800D01*
X204434000Y-118248800D02*
X206624000Y-118248800D01*
X200289000Y-118208800D02*
X202474000Y-118208800D01*
X204434000Y-118208800D02*
X206619000Y-118208800D01*
X200296000Y-118168800D02*
X202474000Y-118168800D01*
X204434000Y-118168800D02*
X206612000Y-118168800D01*
X200302000Y-118128800D02*
X202474000Y-118128800D01*
X204434000Y-118128800D02*
X206606000Y-118128800D01*
X200310000Y-118088800D02*
X202474000Y-118088800D01*
X204434000Y-118088800D02*
X206598000Y-118088800D01*
X200317000Y-118048800D02*
X202474000Y-118048800D01*
X204434000Y-118048800D02*
X206591000Y-118048800D01*
X200326000Y-118008800D02*
X202474000Y-118008800D01*
X204434000Y-118008800D02*
X206582000Y-118008800D01*
X200335000Y-117967800D02*
X202474000Y-117967800D01*
X204434000Y-117967800D02*
X206573000Y-117967800D01*
X200344000Y-117927800D02*
X202474000Y-117927800D01*
X204434000Y-117927800D02*
X206564000Y-117927800D01*
X200354000Y-117887800D02*
X202474000Y-117887800D01*
X204434000Y-117887800D02*
X206554000Y-117887800D01*
X200364000Y-117847800D02*
X202474000Y-117847800D01*
X204434000Y-117847800D02*
X206544000Y-117847800D01*
X200375000Y-117807800D02*
X202474000Y-117807800D01*
X204434000Y-117807800D02*
X206533000Y-117807800D01*
X200387000Y-117767800D02*
X202474000Y-117767800D01*
X204434000Y-117767800D02*
X206521000Y-117767800D01*
X200399000Y-117727800D02*
X202474000Y-117727800D01*
X204434000Y-117727800D02*
X206509000Y-117727800D01*
X200412000Y-117687800D02*
X202474000Y-117687800D01*
X204434000Y-117687800D02*
X206496000Y-117687800D01*
X200425000Y-117647800D02*
X202474000Y-117647800D01*
X204434000Y-117647800D02*
X206483000Y-117647800D01*
X200439000Y-117607800D02*
X202474000Y-117607800D01*
X204434000Y-117607800D02*
X206469000Y-117607800D01*
X200453000Y-117567800D02*
X202474000Y-117567800D01*
X204434000Y-117567800D02*
X206455000Y-117567800D01*
X200468000Y-117527800D02*
X202474000Y-117527800D01*
X204434000Y-117527800D02*
X206440000Y-117527800D01*
X200484000Y-117487800D02*
X202474000Y-117487800D01*
X204434000Y-117487800D02*
X206424000Y-117487800D01*
X200500000Y-117447800D02*
X202474000Y-117447800D01*
X204434000Y-117447800D02*
X206408000Y-117447800D01*
X200517000Y-117407800D02*
X202474000Y-117407800D01*
X204434000Y-117407800D02*
X206391000Y-117407800D01*
X200535000Y-117367800D02*
X202474000Y-117367800D01*
X204434000Y-117367800D02*
X206373000Y-117367800D01*
X200553000Y-117327800D02*
X202474000Y-117327800D01*
X204434000Y-117327800D02*
X206355000Y-117327800D01*
X200572000Y-117287800D02*
X202474000Y-117287800D01*
X204434000Y-117287800D02*
X206336000Y-117287800D01*
X200591000Y-117247800D02*
X202474000Y-117247800D01*
X204434000Y-117247800D02*
X206317000Y-117247800D01*
X200611000Y-117207800D02*
X202474000Y-117207800D01*
X204434000Y-117207800D02*
X206297000Y-117207800D01*
X200632000Y-117167800D02*
X202474000Y-117167800D01*
X204434000Y-117167800D02*
X206276000Y-117167800D01*
X200654000Y-117127800D02*
X202474000Y-117127800D01*
X204434000Y-117127800D02*
X206254000Y-117127800D01*
X200676000Y-117087800D02*
X202474000Y-117087800D01*
X204434000Y-117087800D02*
X206232000Y-117087800D01*
X200699000Y-117047800D02*
X202474000Y-117047800D01*
X204434000Y-117047800D02*
X206209000Y-117047800D01*
X200723000Y-117007800D02*
X202474000Y-117007800D01*
X204434000Y-117007800D02*
X206185000Y-117007800D01*
X200748000Y-116967800D02*
X202474000Y-116967800D01*
X204434000Y-116967800D02*
X206160000Y-116967800D01*
X200773000Y-116927800D02*
X202474000Y-116927800D01*
X204434000Y-116927800D02*
X206135000Y-116927800D01*
X200800000Y-116887800D02*
X202474000Y-116887800D01*
X204434000Y-116887800D02*
X206108000Y-116887800D01*
X200827000Y-116847800D02*
X202474000Y-116847800D01*
X204434000Y-116847800D02*
X206081000Y-116847800D01*
X200855000Y-116807800D02*
X202474000Y-116807800D01*
X204434000Y-116807800D02*
X206053000Y-116807800D01*
X200884000Y-116767800D02*
X202474000Y-116767800D01*
X204434000Y-116767800D02*
X206024000Y-116767800D01*
X200914000Y-116727800D02*
X202474000Y-116727800D01*
X204434000Y-116727800D02*
X205994000Y-116727800D01*
X200944000Y-116687800D02*
X202474000Y-116687800D01*
X204434000Y-116687800D02*
X205964000Y-116687800D01*
X200976000Y-116647800D02*
X202474000Y-116647800D01*
X204434000Y-116647800D02*
X205932000Y-116647800D01*
X201009000Y-116607800D02*
X202474000Y-116607800D01*
X204434000Y-116607800D02*
X205899000Y-116607800D01*
X201043000Y-116567800D02*
X202474000Y-116567800D01*
X204434000Y-116567800D02*
X205865000Y-116567800D01*
X201079000Y-116527800D02*
X202474000Y-116527800D01*
X204434000Y-116527800D02*
X205829000Y-116527800D01*
X201115000Y-116487800D02*
X202474000Y-116487800D01*
X204434000Y-116487800D02*
X205793000Y-116487800D01*
X201153000Y-116447800D02*
X205755000Y-116447800D01*
X201192000Y-116407800D02*
X205716000Y-116407800D01*
X201232000Y-116367800D02*
X205676000Y-116367800D01*
X201274000Y-116327800D02*
X205634000Y-116327800D01*
X201317000Y-116287800D02*
X205591000Y-116287800D01*
X201362000Y-116247800D02*
X205546000Y-116247800D01*
X201409000Y-116207800D02*
X205499000Y-116207800D01*
X201457000Y-116167800D02*
X205451000Y-116167800D01*
X201508000Y-116127800D02*
X205400000Y-116127800D01*
X201560000Y-116087800D02*
X205348000Y-116087800D01*
X201615000Y-116047800D02*
X205293000Y-116047800D01*
X201673000Y-116007800D02*
X205235000Y-116007800D01*
X201733000Y-115967800D02*
X205175000Y-115967800D01*
X201796000Y-115927800D02*
X205112000Y-115927800D01*
X201863000Y-115887800D02*
X205045000Y-115887800D01*
X201934000Y-115847800D02*
X204974000Y-115847800D01*
X202009000Y-115807800D02*
X204899000Y-115807800D01*
X202090000Y-115767800D02*
X204818000Y-115767800D01*
X202176000Y-115727800D02*
X204732000Y-115727800D01*
X202270000Y-115687800D02*
X204638000Y-115687800D01*
X202373000Y-115647800D02*
X204535000Y-115647800D01*
X202488000Y-115607800D02*
X204420000Y-115607800D01*
X202620000Y-115567800D02*
X204288000Y-115567800D01*
X202778000Y-115527800D02*
X204130000Y-115527800D01*
X202986000Y-115487800D02*
X203922000Y-115487800D01*
X203454000Y-122138800D02*
X203454000Y-120938800D01*
X202804000Y-121538800D02*
X204104000Y-121538800D01*
G04 #@! TO.C,R1*
X196305000Y-118284600D02*
X198305000Y-118284600D01*
X198305000Y-120424600D02*
X196305000Y-120424600D01*
G04 #@! TO.C,R4*
X202130000Y-114284000D02*
X202130000Y-112284000D01*
X204270000Y-112284000D02*
X204270000Y-114284000D01*
G04 #@! TO.C,R5*
X204416000Y-114284000D02*
X204416000Y-112284000D01*
X206556000Y-112284000D02*
X206556000Y-114284000D01*
G04 #@! TO.C,R6*
X206702000Y-114284000D02*
X206702000Y-112284000D01*
X208842000Y-112284000D02*
X208842000Y-114284000D01*
G04 #@! TO.C,D1*
X192548000Y-121655400D02*
X194548000Y-121655400D01*
X194548000Y-121655400D02*
X194548000Y-117755400D01*
X192548000Y-121655400D02*
X192548000Y-117755400D01*
G04 #@! TO.C,D2*
X190262000Y-121655400D02*
X192262000Y-121655400D01*
X192262000Y-121655400D02*
X192262000Y-117755400D01*
X190262000Y-121655400D02*
X190262000Y-117755400D01*
G04 #@! TO.C,D3*
X192548000Y-115788000D02*
X194548000Y-115788000D01*
X194548000Y-115788000D02*
X194548000Y-111888000D01*
X192548000Y-115788000D02*
X192548000Y-111888000D01*
G04 #@! TO.C,D4*
X190262000Y-115788000D02*
X192262000Y-115788000D01*
X192262000Y-115788000D02*
X192262000Y-111888000D01*
X190262000Y-115788000D02*
X190262000Y-111888000D01*
G04 #@! TO.C,C3*
X212683600Y-111781400D02*
X210683600Y-111781400D01*
X210683600Y-113821400D02*
X212683600Y-113821400D01*
G04 #@! TO.C,C4*
X207031400Y-117262400D02*
X207031400Y-119262400D01*
X209071400Y-119262400D02*
X209071400Y-117262400D01*
G04 #@! TO.C,U1*
D13*
X211328095Y-115784380D02*
X211328095Y-116593904D01*
X211375714Y-116689142D01*
X211423333Y-116736761D01*
X211518571Y-116784380D01*
X211709047Y-116784380D01*
X211804285Y-116736761D01*
X211851904Y-116689142D01*
X211899523Y-116593904D01*
X211899523Y-115784380D01*
X212899523Y-116784380D02*
X212328095Y-116784380D01*
X212613809Y-116784380D02*
X212613809Y-115784380D01*
X212518571Y-115927238D01*
X212423333Y-116022476D01*
X212328095Y-116070095D01*
G04 #@! TO.C,C1*
X199858333Y-116054142D02*
X199810714Y-116101761D01*
X199667857Y-116149380D01*
X199572619Y-116149380D01*
X199429761Y-116101761D01*
X199334523Y-116006523D01*
X199286904Y-115911285D01*
X199239285Y-115720809D01*
X199239285Y-115577952D01*
X199286904Y-115387476D01*
X199334523Y-115292238D01*
X199429761Y-115197000D01*
X199572619Y-115149380D01*
X199667857Y-115149380D01*
X199810714Y-115197000D01*
X199858333Y-115244619D01*
X200810714Y-116149380D02*
X200239285Y-116149380D01*
X200525000Y-116149380D02*
X200525000Y-115149380D01*
X200429761Y-115292238D01*
X200334523Y-115387476D01*
X200239285Y-115435095D01*
G04 #@! TO.C,C2*
X205192333Y-119864142D02*
X205144714Y-119911761D01*
X205001857Y-119959380D01*
X204906619Y-119959380D01*
X204763761Y-119911761D01*
X204668523Y-119816523D01*
X204620904Y-119721285D01*
X204573285Y-119530809D01*
X204573285Y-119387952D01*
X204620904Y-119197476D01*
X204668523Y-119102238D01*
X204763761Y-119007000D01*
X204906619Y-118959380D01*
X205001857Y-118959380D01*
X205144714Y-119007000D01*
X205192333Y-119054619D01*
X205573285Y-119054619D02*
X205620904Y-119007000D01*
X205716142Y-118959380D01*
X205954238Y-118959380D01*
X206049476Y-119007000D01*
X206097095Y-119054619D01*
X206144714Y-119149857D01*
X206144714Y-119245095D01*
X206097095Y-119387952D01*
X205525666Y-119959380D01*
X206144714Y-119959380D01*
G04 #@! TO.C,R1*
D15*
X197188333Y-119671266D02*
X196955000Y-119337933D01*
X196788333Y-119671266D02*
X196788333Y-118971266D01*
X197055000Y-118971266D01*
X197121666Y-119004600D01*
X197155000Y-119037933D01*
X197188333Y-119104600D01*
X197188333Y-119204600D01*
X197155000Y-119271266D01*
X197121666Y-119304600D01*
X197055000Y-119337933D01*
X196788333Y-119337933D01*
X197855000Y-119671266D02*
X197455000Y-119671266D01*
X197655000Y-119671266D02*
X197655000Y-118971266D01*
X197588333Y-119071266D01*
X197521666Y-119137933D01*
X197455000Y-119171266D01*
G04 #@! TO.C,R4*
X203516666Y-113400666D02*
X203183333Y-113634000D01*
X203516666Y-113800666D02*
X202816666Y-113800666D01*
X202816666Y-113534000D01*
X202850000Y-113467333D01*
X202883333Y-113434000D01*
X202950000Y-113400666D01*
X203050000Y-113400666D01*
X203116666Y-113434000D01*
X203150000Y-113467333D01*
X203183333Y-113534000D01*
X203183333Y-113800666D01*
X203050000Y-112800666D02*
X203516666Y-112800666D01*
X202783333Y-112967333D02*
X203283333Y-113134000D01*
X203283333Y-112700666D01*
G04 #@! TO.C,R5*
X205802666Y-113400666D02*
X205469333Y-113634000D01*
X205802666Y-113800666D02*
X205102666Y-113800666D01*
X205102666Y-113534000D01*
X205136000Y-113467333D01*
X205169333Y-113434000D01*
X205236000Y-113400666D01*
X205336000Y-113400666D01*
X205402666Y-113434000D01*
X205436000Y-113467333D01*
X205469333Y-113534000D01*
X205469333Y-113800666D01*
X205102666Y-112767333D02*
X205102666Y-113100666D01*
X205436000Y-113134000D01*
X205402666Y-113100666D01*
X205369333Y-113034000D01*
X205369333Y-112867333D01*
X205402666Y-112800666D01*
X205436000Y-112767333D01*
X205502666Y-112734000D01*
X205669333Y-112734000D01*
X205736000Y-112767333D01*
X205769333Y-112800666D01*
X205802666Y-112867333D01*
X205802666Y-113034000D01*
X205769333Y-113100666D01*
X205736000Y-113134000D01*
G04 #@! TO.C,R6*
X208088666Y-113400666D02*
X207755333Y-113634000D01*
X208088666Y-113800666D02*
X207388666Y-113800666D01*
X207388666Y-113534000D01*
X207422000Y-113467333D01*
X207455333Y-113434000D01*
X207522000Y-113400666D01*
X207622000Y-113400666D01*
X207688666Y-113434000D01*
X207722000Y-113467333D01*
X207755333Y-113534000D01*
X207755333Y-113800666D01*
X207388666Y-112800666D02*
X207388666Y-112934000D01*
X207422000Y-113000666D01*
X207455333Y-113034000D01*
X207555333Y-113100666D01*
X207688666Y-113134000D01*
X207955333Y-113134000D01*
X208022000Y-113100666D01*
X208055333Y-113067333D01*
X208088666Y-113000666D01*
X208088666Y-112867333D01*
X208055333Y-112800666D01*
X208022000Y-112767333D01*
X207955333Y-112734000D01*
X207788666Y-112734000D01*
X207722000Y-112767333D01*
X207688666Y-112800666D01*
X207655333Y-112867333D01*
X207655333Y-113000666D01*
X207688666Y-113067333D01*
X207722000Y-113100666D01*
X207788666Y-113134000D01*
G04 #@! TO.C,C3*
D13*
X212015342Y-112993466D02*
X212062961Y-113041085D01*
X212110580Y-113183942D01*
X212110580Y-113279180D01*
X212062961Y-113422038D01*
X211967723Y-113517276D01*
X211872485Y-113564895D01*
X211682009Y-113612514D01*
X211539152Y-113612514D01*
X211348676Y-113564895D01*
X211253438Y-113517276D01*
X211158200Y-113422038D01*
X211110580Y-113279180D01*
X211110580Y-113183942D01*
X211158200Y-113041085D01*
X211205819Y-112993466D01*
X211110580Y-112660133D02*
X211110580Y-112041085D01*
X211491533Y-112374419D01*
X211491533Y-112231561D01*
X211539152Y-112136323D01*
X211586771Y-112088704D01*
X211682009Y-112041085D01*
X211920104Y-112041085D01*
X212015342Y-112088704D01*
X212062961Y-112136323D01*
X212110580Y-112231561D01*
X212110580Y-112517276D01*
X212062961Y-112612514D01*
X212015342Y-112660133D01*
G04 #@! TO.C,C4*
X207884733Y-118619542D02*
X207837114Y-118667161D01*
X207694257Y-118714780D01*
X207599019Y-118714780D01*
X207456161Y-118667161D01*
X207360923Y-118571923D01*
X207313304Y-118476685D01*
X207265685Y-118286209D01*
X207265685Y-118143352D01*
X207313304Y-117952876D01*
X207360923Y-117857638D01*
X207456161Y-117762400D01*
X207599019Y-117714780D01*
X207694257Y-117714780D01*
X207837114Y-117762400D01*
X207884733Y-117810019D01*
X208741876Y-118048114D02*
X208741876Y-118714780D01*
X208503780Y-117667161D02*
X208265685Y-118381447D01*
X208884733Y-118381447D01*
G04 #@! TD*
M02*
