M48
;DRILL file {KiCad (5.0.0-rc2-dev-451-g0294e41cb)} date 10/15/18 22:28:00
;FORMAT={-:-/ absolute / inch / decimal}
FMAT,2
INCH,TZ
T1C0.0118
T2C0.0157
T3C0.0236
T4C0.0315
T5C0.0394
T6C0.0400
T7C0.0433
T8C0.0512
T9C0.1260
%
G90
G05
M72
T1
X2.75Y-7.5469
X2.8Y-7.4923
X2.9Y-7.6014
X2.95Y-7.6559
X3.05Y-7.4378
X3.1Y-7.3833
X3.2Y-7.2742
X3.25Y-7.3287
X6.08Y-6.57
X6.1Y-6.54
X6.37Y-7.38
X6.4Y-7.44
X6.43Y-7.4923
X6.46Y-7.5469
X6.49Y-6.66
X6.49Y-7.6014
X6.499Y-6.789
X6.51Y-6.52
X6.512Y-7.026
X6.52Y-6.84
X6.52Y-6.89
X6.52Y-7.07
X6.52Y-7.12
X6.52Y-7.6559
X6.5215Y-6.69
X6.97Y-6.54
X6.97Y-6.62
X6.984Y-6.7045
X6.99Y-6.59
X7.01Y-6.49
X7.575Y-6.52
X7.575Y-6.57
X7.674Y-7.13
X7.674Y-7.221
X8.625Y-6.87
X9.185Y-6.82
X9.185Y-7.2742
X9.2Y-6.76
X9.21Y-6.49
X9.21Y-6.86
X9.21Y-7.3287
X12.5689Y-7.0302
X12.5689Y-6.9802
X12.6089Y-6.9552
X12.6089Y-7.0052
T2
X7.25Y-7.235
X7.56Y-6.985
X7.57Y-6.84
X7.78Y-6.58
X7.78Y-6.735
T3
X4.505Y-7.22
X4.505Y-7.71
X4.935Y-6.66
X4.935Y-6.835
X4.935Y-7.01
X5.11Y-6.66
X5.11Y-7.01
X5.285Y-6.66
X5.285Y-6.835
X5.285Y-7.01
X9.555Y-6.89
X12.6089Y-7.2752
X12.6089Y-7.3302
X12.6089Y-7.3852
X12.6089Y-7.4402
X12.6089Y-7.4902
X12.6089Y-7.5452
X12.6089Y-7.6002
T4
X5.55Y-7.22
X5.6484Y-7.22
X10.3543Y-8.2039
X10.3543Y-8.5039
X10.4543Y-8.2039
X10.4543Y-8.5039
X10.5543Y-8.2039
X10.5543Y-8.5039
X10.6543Y-8.2039
X10.6543Y-8.5039
X10.7543Y-8.2039
X10.7543Y-8.5039
X11.0039Y-8.2039
X11.0039Y-8.5039
X11.1039Y-8.2039
X11.1039Y-8.5039
X11.2039Y-8.2039
X11.2039Y-8.5039
X11.3039Y-8.2039
X11.3039Y-8.5039
X11.4039Y-8.2039
X11.4039Y-8.5039
T5
X5.9055Y-7.1106
X5.9055Y-7.2197
X5.9055Y-7.3287
X5.9055Y-7.4378
X5.9055Y-7.5469
X5.9055Y-7.6559
X5.9055Y-7.765
X5.9055Y-7.874
X6.0173Y-7.1652
X6.0173Y-7.2742
X6.0173Y-7.3833
X6.0173Y-7.4923
X6.0173Y-7.6014
X6.0173Y-7.7104
X6.0173Y-7.8195
X1.9685Y-7.1106
X1.9685Y-7.2197
X1.9685Y-7.3287
X1.9685Y-7.4378
X1.9685Y-7.5469
X1.9685Y-7.6559
X1.9685Y-7.765
X1.9685Y-7.874
X2.0803Y-7.1652
X2.0803Y-7.2742
X2.0803Y-7.3833
X2.0803Y-7.4923
X2.0803Y-7.6014
X2.0803Y-7.7104
X2.0803Y-7.8195
X11.811Y-7.1106
X11.811Y-7.2197
X11.811Y-7.3287
X11.811Y-7.4378
X11.811Y-7.5469
X11.811Y-7.6559
X11.811Y-7.765
X11.811Y-7.874
X11.9228Y-7.1652
X11.9228Y-7.2742
X11.9228Y-7.3833
X11.9228Y-7.4923
X11.9228Y-7.6014
X11.9228Y-7.7104
X11.9228Y-7.8195
X4.9803Y-7.7953
X4.9803Y-8.0906
X3.937Y-7.1106
X3.937Y-7.2197
X3.937Y-7.3287
X3.937Y-7.4378
X3.937Y-7.5469
X3.937Y-7.6559
X3.937Y-7.765
X3.937Y-7.874
X4.0488Y-7.1652
X4.0488Y-7.2742
X4.0488Y-7.3833
X4.0488Y-7.4923
X4.0488Y-7.6014
X4.0488Y-7.7104
X4.0488Y-7.8195
X9.59Y-6.53
X9.69Y-6.53
X9.79Y-6.53
X9.89Y-6.53
X9.99Y-6.53
X10.09Y-6.53
X7.874Y-7.1106
X7.874Y-7.2197
X7.874Y-7.3287
X7.874Y-7.4378
X7.874Y-7.5469
X7.874Y-7.6559
X7.874Y-7.765
X7.874Y-7.874
X7.9858Y-7.1652
X7.9858Y-7.2742
X7.9858Y-7.3833
X7.9858Y-7.4923
X7.9858Y-7.6014
X7.9858Y-7.7104
X7.9858Y-7.8195
X9.8425Y-7.1106
X9.8425Y-7.2197
X9.8425Y-7.3287
X9.8425Y-7.4378
X9.8425Y-7.5469
X9.8425Y-7.6559
X9.8425Y-7.765
X9.8425Y-7.874
X9.9543Y-7.1652
X9.9543Y-7.2742
X9.9543Y-7.3833
X9.9543Y-7.4923
X9.9543Y-7.6014
X9.9543Y-7.7104
X9.9543Y-7.8195
T6
X2.8Y-6.6
X2.8Y-6.7
X2.9Y-6.6
X2.9Y-6.7
X3.Y-6.6
X3.Y-6.7
X3.1Y-6.6
X3.1Y-6.7
X3.2Y-6.6
X3.2Y-6.7
T7
X5.024Y-7.121
X5.1141Y-7.121
X5.2043Y-7.121
T8
X5.7618Y-8.5039
X5.9618Y-8.5039
X6.1618Y-8.5039
X11.6673Y-8.5039
X11.8673Y-8.5039
X12.0673Y-8.5039
X3.7933Y-8.5039
X3.9933Y-8.5039
X4.1933Y-8.5039
X7.7303Y-8.5039
X7.9303Y-8.5039
X8.1303Y-8.5039
X1.8248Y-8.5039
X2.0248Y-8.5039
X2.2248Y-8.5039
X9.6988Y-8.5039
X9.8988Y-8.5039
X10.0988Y-8.5039
T9
X3.9929Y-6.8368
X3.9929Y-8.1478
X7.9299Y-6.8368
X7.9299Y-8.1478
X9.8984Y-6.8368
X9.8984Y-8.1478
X5.9614Y-6.8368
X5.9614Y-8.1478
X2.0244Y-6.8368
X2.0244Y-8.1478
X11.8669Y-6.8368
X11.8669Y-8.1478
T0
M30
