M48
;DRILL file {KiCad (5.0.0-rc2-dev-444-g2974a2c10)} date 05/07/18 15:04:48
;FORMAT={-:-/ absolute / inch / decimal}
FMAT,2
INCH,TZ
T1C0.0197
T2C0.0295
T3C0.0315
T4C0.0394
T5C0.0472
T6C0.0512
T7C0.1260
T8C0.1457
T9C0.1378
%
G90
G05
M72
T1
X5.2969Y-3.8333
X5.3289Y-3.7561
X5.3289Y-3.9106
X5.4062Y-3.7241
X5.4062Y-3.9426
X5.4834Y-3.7561
X5.4834Y-3.9106
X5.5154Y-3.8333
T2
X4.7085Y-3.5994
X4.7585Y-3.5494
X4.7585Y-3.6494
T3
X4.3685Y-2.2744
X4.3685Y-2.3728
T4
X2.1756Y-3.0073
X2.1756Y-3.1163
X2.1756Y-3.2254
X2.1756Y-3.3344
X2.1756Y-3.4435
X2.1756Y-3.5526
X2.1756Y-3.6616
X2.2874Y-2.9528
X2.2874Y-3.0618
X2.2874Y-3.1709
X2.2874Y-3.2799
X2.2874Y-3.389
X2.2874Y-3.498
X2.2874Y-3.6071
X2.2874Y-3.7161
X5.0715Y-2.9244
X5.1385Y-3.1244
X5.2054Y-2.9244
X5.2723Y-3.1244
X5.3393Y-2.9244
X5.4062Y-3.1244
X5.4731Y-2.9244
X5.54Y-3.1244
X5.607Y-2.9244
X5.6739Y-3.1244
X5.7408Y-2.9244
X5.9185Y-2.1744
X5.9185Y-2.2744
X5.9185Y-2.3744
X5.9185Y-2.4744
X5.9185Y-2.5744
X5.9185Y-2.6744
T5
X4.7935Y-2.1244
X4.7935Y-3.2268
T6
X2.5435Y-2.0994
X2.5435Y-2.5915
X3.3309Y-2.0994
X3.3309Y-2.5915
X2.5561Y-4.1073
X2.5561Y-4.5994
X3.3435Y-4.1073
X3.3435Y-4.5994
T7
X2.2756Y-2.6789
X2.2756Y-3.99
T8
X5.4062Y-3.8333
T9
X5.4062Y-3.8331
T0
M30
