G04 #@! TF.GenerationSoftware,KiCad,Pcbnew,(5.0.0-rc2-dev-444-g2974a2c10)*
G04 #@! TF.CreationDate,2018-05-07T15:04:31+02:00*
G04 #@! TF.ProjectId,TrackAmplifier,547261636B416D706C69666965722E6B,rev?*
G04 #@! TF.SameCoordinates,Original*
G04 #@! TF.FileFunction,Copper,L1,Top,Signal*
G04 #@! TF.FilePolarity,Positive*
%FSLAX46Y46*%
G04 Gerber Fmt 4.6, Leading zero omitted, Abs format (unit mm)*
G04 Created by KiCad (PCBNEW (5.0.0-rc2-dev-444-g2974a2c10)) date 05/07/18 15:04:31*
%MOMM*%
%LPD*%
G01*
G04 APERTURE LIST*
%ADD10R,1.800000X1.220000*%
%ADD11R,1.220000X1.800000*%
%ADD12R,1.600000X1.600000*%
%ADD13C,1.600000*%
%ADD14R,0.900000X0.800000*%
%ADD15R,0.600000X1.550000*%
%ADD16R,2.200000X1.200000*%
%ADD17R,6.400000X5.800000*%
%ADD18R,0.450000X1.450000*%
%ADD19R,2.000000X0.600000*%
%ADD20C,4.000000*%
%ADD21C,2.500000*%
%ADD22R,2.500000X2.500000*%
%ADD23R,2.400000X2.400000*%
%ADD24O,2.400000X2.400000*%
%ADD25C,1.300000*%
%ADD26R,1.300000X1.300000*%
%ADD27C,7.400000*%
%ADD28C,0.800000*%
%ADD29R,1.800000X1.800000*%
%ADD30O,1.800000X1.800000*%
%ADD31R,2.290000X2.030000*%
%ADD32R,1.400000X0.760000*%
%ADD33R,1.700000X1.700000*%
%ADD34O,1.700000X1.700000*%
G04 APERTURE END LIST*
D10*
X70320000Y-83965000D03*
X70320000Y-81105000D03*
X84925000Y-81105000D03*
X84925000Y-83965000D03*
X73096675Y-81105000D03*
X73096675Y-83965000D03*
X82385000Y-81105000D03*
X82385000Y-83965000D03*
X105245000Y-60150000D03*
X105245000Y-63010000D03*
X102705000Y-63010000D03*
X102705000Y-60150000D03*
D11*
X133660000Y-69200000D03*
X136520000Y-69200000D03*
X136520000Y-71740000D03*
X133660000Y-71740000D03*
D10*
X102705000Y-55070000D03*
X102705000Y-57930000D03*
X64605000Y-94125000D03*
X64605000Y-91265000D03*
X76035000Y-91265000D03*
X76035000Y-94125000D03*
X105245000Y-57930000D03*
X105245000Y-55070000D03*
X67145000Y-94125000D03*
X67145000Y-91265000D03*
X78575000Y-91265000D03*
X78575000Y-94125000D03*
D12*
X110960000Y-57770000D03*
D13*
X110960000Y-60270000D03*
D10*
X149695000Y-77615000D03*
X149695000Y-74755000D03*
D11*
X131440000Y-71740000D03*
X128580000Y-71740000D03*
D10*
X105880000Y-101425000D03*
X105880000Y-104285000D03*
X108420000Y-104285000D03*
X108420000Y-101425000D03*
X112230000Y-106505000D03*
X112230000Y-109365000D03*
X110960000Y-101425000D03*
X110960000Y-104285000D03*
X91910000Y-104285000D03*
X91910000Y-101425000D03*
X94450000Y-101425000D03*
X94450000Y-104285000D03*
X100800000Y-109365000D03*
X100800000Y-106505000D03*
X110960000Y-87452479D03*
X110960000Y-90312479D03*
X108420000Y-90315000D03*
X108420000Y-87455000D03*
X96990000Y-101425000D03*
X96990000Y-104285000D03*
X110960000Y-85235000D03*
X110960000Y-82375000D03*
D11*
X70795000Y-73010000D03*
X73655000Y-73010000D03*
X99055000Y-72375000D03*
X96195000Y-72375000D03*
D10*
X130629947Y-56600757D03*
X130629947Y-59460757D03*
X133804947Y-56600757D03*
X133804947Y-59460757D03*
X136979947Y-59460757D03*
X136979947Y-56600757D03*
X140154947Y-59460757D03*
X140154947Y-56600757D03*
D11*
X75875000Y-70470000D03*
X78735000Y-70470000D03*
X75875000Y-73010000D03*
X78735000Y-73010000D03*
X96195000Y-74915000D03*
X99055000Y-74915000D03*
D14*
X89640000Y-72695000D03*
X89640000Y-74595000D03*
X91640000Y-73645000D03*
D11*
X73020000Y-78725000D03*
X70160000Y-78725000D03*
X85085000Y-78725000D03*
X82225000Y-78725000D03*
X92070000Y-66660000D03*
X89210000Y-66660000D03*
D10*
X142075000Y-69040000D03*
X142075000Y-71900000D03*
D11*
X94290000Y-66660000D03*
X97150000Y-66660000D03*
D10*
X138900000Y-69040000D03*
X138900000Y-71900000D03*
X145250000Y-69040000D03*
X145250000Y-71900000D03*
X84925000Y-75075000D03*
X84925000Y-72215000D03*
D11*
X67305000Y-96505000D03*
X64445000Y-96505000D03*
X78735000Y-96505000D03*
X75875000Y-96505000D03*
X121280000Y-100950000D03*
X118420000Y-100950000D03*
D10*
X103340000Y-104285000D03*
X103340000Y-101425000D03*
X105880000Y-109365000D03*
X105880000Y-106505000D03*
D11*
X72385000Y-99680000D03*
X69525000Y-99680000D03*
D10*
X114770000Y-109365000D03*
X114770000Y-106505000D03*
X113500000Y-104285000D03*
X113500000Y-101425000D03*
X89370000Y-104285000D03*
X89370000Y-101425000D03*
X91910000Y-109365000D03*
X91910000Y-106505000D03*
X98260000Y-109365000D03*
X98260000Y-106505000D03*
X113500000Y-90312479D03*
X113500000Y-87452479D03*
X99530000Y-104285000D03*
X99530000Y-101425000D03*
X149695000Y-82695000D03*
X149695000Y-79835000D03*
X116040000Y-90315000D03*
X116040000Y-87455000D03*
X130645000Y-61420000D03*
X130645000Y-64280000D03*
X133804947Y-64280000D03*
X133804947Y-61420000D03*
X136979947Y-61420000D03*
X136979947Y-64280000D03*
X143329947Y-61420000D03*
X143329947Y-64280000D03*
D11*
X75875000Y-75550000D03*
X78735000Y-75550000D03*
X99055000Y-69835000D03*
X96195000Y-69835000D03*
X104135000Y-72372479D03*
X101275000Y-72372479D03*
X70795000Y-70470000D03*
X73655000Y-70470000D03*
D15*
X67780000Y-78565000D03*
X66510000Y-78565000D03*
X65240000Y-78565000D03*
X63970000Y-78565000D03*
X63970000Y-83965000D03*
X65240000Y-83965000D03*
X66510000Y-83965000D03*
X67780000Y-83965000D03*
X79845000Y-78565000D03*
X78575000Y-78565000D03*
X77305000Y-78565000D03*
X76035000Y-78565000D03*
X76035000Y-83965000D03*
X77305000Y-83965000D03*
X78575000Y-83965000D03*
X79845000Y-83965000D03*
D16*
X99920000Y-60685000D03*
X99920000Y-56125000D03*
D17*
X93620000Y-58405000D03*
D15*
X69685000Y-91265000D03*
X70955000Y-91265000D03*
X72225000Y-91265000D03*
X73495000Y-91265000D03*
X73495000Y-96665000D03*
X72225000Y-96665000D03*
X70955000Y-96665000D03*
X69685000Y-96665000D03*
X81115000Y-91265000D03*
X82385000Y-91265000D03*
X83655000Y-91265000D03*
X84925000Y-91265000D03*
X84925000Y-96665000D03*
X83655000Y-96665000D03*
X82385000Y-96665000D03*
X81115000Y-96665000D03*
D18*
X108080000Y-110770000D03*
X108730000Y-110770000D03*
X109380000Y-110770000D03*
X110030000Y-110770000D03*
X110030000Y-106370000D03*
X109380000Y-106370000D03*
X108730000Y-106370000D03*
X108080000Y-106370000D03*
X94110000Y-106370000D03*
X94760000Y-106370000D03*
X95410000Y-106370000D03*
X96060000Y-106370000D03*
X96060000Y-110770000D03*
X95410000Y-110770000D03*
X94760000Y-110770000D03*
X94110000Y-110770000D03*
D19*
X96100000Y-77452479D03*
X96100000Y-78722479D03*
X96100000Y-79992479D03*
X96100000Y-81262479D03*
X96100000Y-82532479D03*
X96100000Y-83802479D03*
X96100000Y-85072479D03*
X96100000Y-86342479D03*
X96100000Y-87612479D03*
X96100000Y-88882479D03*
X96100000Y-90152479D03*
X96100000Y-91422479D03*
X96100000Y-92692479D03*
X96100000Y-93962479D03*
X105500000Y-93962479D03*
X105500000Y-92692479D03*
X105500000Y-91422479D03*
X105500000Y-90152479D03*
X105500000Y-88882479D03*
X105500000Y-87612479D03*
X105500000Y-86342479D03*
X105500000Y-85072479D03*
X105500000Y-83802479D03*
X105500000Y-82532479D03*
X105500000Y-81262479D03*
X105500000Y-79992479D03*
X105500000Y-78722479D03*
X105500000Y-77452479D03*
D12*
X58100000Y-75000000D03*
D13*
X58100000Y-77770000D03*
X58100000Y-80540000D03*
X58100000Y-83310000D03*
X58100000Y-86080000D03*
X58100000Y-88850000D03*
X58100000Y-91620000D03*
X58100000Y-94390000D03*
X55260000Y-76385000D03*
X55260000Y-79155000D03*
X55260000Y-81925000D03*
X55260000Y-84695000D03*
X55260000Y-87465000D03*
X55260000Y-90235000D03*
X55260000Y-93005000D03*
D20*
X57800000Y-68045000D03*
X57800000Y-101345000D03*
D21*
X64925000Y-104325000D03*
X84925000Y-104325000D03*
X64925000Y-116825000D03*
D22*
X84925000Y-116825000D03*
D23*
X121755000Y-53960000D03*
D24*
X121755000Y-81960000D03*
D11*
X87917872Y-86987536D03*
X90777872Y-86987536D03*
X90777872Y-84447536D03*
X87917872Y-84447536D03*
X87917872Y-89527536D03*
X90777872Y-89527536D03*
D14*
X90982872Y-82222536D03*
X90982872Y-80322536D03*
X88982872Y-81272536D03*
D10*
X143329947Y-56600757D03*
X143329947Y-59460757D03*
X140154947Y-61420000D03*
X140154947Y-64280000D03*
D11*
X118420000Y-98410000D03*
X121280000Y-98410000D03*
X121280000Y-95870000D03*
X118420000Y-95870000D03*
D25*
X119596000Y-91425000D03*
X120866000Y-90155000D03*
D26*
X120866000Y-92695000D03*
D21*
X84605000Y-65825000D03*
X64605000Y-65825000D03*
X84605000Y-53325000D03*
D22*
X64605000Y-53325000D03*
D10*
X87465000Y-72215000D03*
X87465000Y-75075000D03*
X118580000Y-87775000D03*
X118580000Y-84915000D03*
D27*
X137317013Y-97367015D03*
D28*
X134542013Y-97367015D03*
X135354792Y-95404794D03*
X137317013Y-94592015D03*
X139279234Y-95404794D03*
X140092013Y-97367015D03*
X139279234Y-99329236D03*
X137317013Y-100142015D03*
X135354792Y-99329236D03*
D29*
X145817013Y-74280000D03*
D30*
X144117013Y-79360000D03*
X142417013Y-74280000D03*
X140717013Y-79360000D03*
X139017013Y-74280000D03*
X137317013Y-79360000D03*
X135617013Y-74280000D03*
X133917013Y-79360000D03*
X132217013Y-74280000D03*
X130517013Y-79360000D03*
X128817013Y-74280000D03*
D31*
X107595000Y-116825000D03*
X101625000Y-115555000D03*
D32*
X108040000Y-114920000D03*
X101180000Y-117460000D03*
D33*
X150330000Y-67930000D03*
D34*
X150330000Y-65390000D03*
X150330000Y-62850000D03*
X150330000Y-60310000D03*
X150330000Y-57770000D03*
X150330000Y-55230000D03*
M02*
