G04 #@! TF.GenerationSoftware,KiCad,Pcbnew,(5.0.0-rc2-dev-444-g2974a2c10)*
G04 #@! TF.CreationDate,2018-05-07T15:04:31+02:00*
G04 #@! TF.ProjectId,TrackAmplifier,547261636B416D706C69666965722E6B,rev?*
G04 #@! TF.SameCoordinates,Original*
G04 #@! TF.FileFunction,Copper,L2,Bot,Signal*
G04 #@! TF.FilePolarity,Positive*
%FSLAX46Y46*%
G04 Gerber Fmt 4.6, Leading zero omitted, Abs format (unit mm)*
G04 Created by KiCad (PCBNEW (5.0.0-rc2-dev-444-g2974a2c10)) date 05/07/18 15:04:31*
%MOMM*%
%LPD*%
G01*
G04 APERTURE LIST*
%ADD10R,1.600000X1.600000*%
%ADD11C,1.600000*%
%ADD12C,4.000000*%
%ADD13C,2.500000*%
%ADD14R,2.500000X2.500000*%
%ADD15R,2.400000X2.400000*%
%ADD16O,2.400000X2.400000*%
%ADD17C,1.300000*%
%ADD18R,1.300000X1.300000*%
%ADD19C,7.400000*%
%ADD20C,0.800000*%
%ADD21R,1.800000X1.800000*%
%ADD22O,1.800000X1.800000*%
%ADD23R,1.700000X1.700000*%
%ADD24O,1.700000X1.700000*%
G04 APERTURE END LIST*
D10*
X110960000Y-57770000D03*
D11*
X110960000Y-60270000D03*
D10*
X58100000Y-75000000D03*
D11*
X58100000Y-77770000D03*
X58100000Y-80540000D03*
X58100000Y-83310000D03*
X58100000Y-86080000D03*
X58100000Y-88850000D03*
X58100000Y-91620000D03*
X58100000Y-94390000D03*
X55260000Y-76385000D03*
X55260000Y-79155000D03*
X55260000Y-81925000D03*
X55260000Y-84695000D03*
X55260000Y-87465000D03*
X55260000Y-90235000D03*
X55260000Y-93005000D03*
D12*
X57800000Y-68045000D03*
X57800000Y-101345000D03*
D13*
X64925000Y-104325000D03*
X84925000Y-104325000D03*
X64925000Y-116825000D03*
D14*
X84925000Y-116825000D03*
D15*
X121755000Y-53960000D03*
D16*
X121755000Y-81960000D03*
D17*
X119596000Y-91425000D03*
X120866000Y-90155000D03*
D18*
X120866000Y-92695000D03*
D13*
X84605000Y-65825000D03*
X64605000Y-65825000D03*
X84605000Y-53325000D03*
D14*
X64605000Y-53325000D03*
D19*
X137317013Y-97367015D03*
D20*
X134542013Y-97367015D03*
X135354792Y-95404794D03*
X137317013Y-94592015D03*
X139279234Y-95404794D03*
X140092013Y-97367015D03*
X139279234Y-99329236D03*
X137317013Y-100142015D03*
X135354792Y-99329236D03*
D21*
X145817013Y-74280000D03*
D22*
X144117013Y-79360000D03*
X142417013Y-74280000D03*
X140717013Y-79360000D03*
X139017013Y-74280000D03*
X137317013Y-79360000D03*
X135617013Y-74280000D03*
X133917013Y-79360000D03*
X132217013Y-74280000D03*
X130517013Y-79360000D03*
X128817013Y-74280000D03*
D23*
X150330000Y-67930000D03*
D24*
X150330000Y-65390000D03*
X150330000Y-62850000D03*
X150330000Y-60310000D03*
X150330000Y-57770000D03*
X150330000Y-55230000D03*
M02*
