M48
;DRILL file {KiCad (5.0.0)} date 10/08/18 22:47:45
;FORMAT={-:-/ absolute / inch / decimal}
FMAT,2
INCH,TZ
T1C0.0157
T2C0.0236
T3C0.0394
T4C0.0400
%
G90
G05
M72
T1
X4.2Y-3.8
X4.5Y-3.7325
X4.57Y-3.8
X4.585Y-4.12
X4.84Y-2.52
X4.855Y-4.215
X4.855Y-4.2975
X4.895Y-2.29
X4.9525Y-4.12
X5.045Y-2.29
X5.065Y-2.755
X5.085Y-3.315
X5.26Y-4.25
X5.275Y-3.2675
X5.28Y-2.4
X5.355Y-2.9675
X5.43Y-2.805
X5.43Y-2.855
X5.46Y-2.2905
T2
X4.27Y-1.81
T3
X4.2Y-2.78
X4.2Y-2.88
X4.2Y-2.98
X4.2Y-3.08
X4.2Y-3.18
X4.2Y-3.28
X4.2Y-3.38
X4.2Y-3.48
X4.345Y-3.515
X4.445Y-3.515
X4.545Y-3.515
X4.645Y-3.515
X4.745Y-3.515
X4.845Y-3.515
X4.945Y-3.515
X5.045Y-3.515
X4.6Y-4.5
X4.6Y-4.6
X4.7Y-4.5
X4.7Y-4.6
X4.8Y-4.5
X4.8Y-4.6
X4.9Y-4.5
X4.9Y-4.6
X5.Y-4.5
X5.Y-4.6
X5.1Y-4.5
X5.1Y-4.6
X5.2Y-4.5
X5.2Y-4.6
X5.3Y-4.5
X5.3Y-4.6
X4.6Y-1.8
X4.6Y-1.9
X4.7Y-1.8
X4.7Y-1.9
X4.8Y-1.8
X4.8Y-1.9
X4.9Y-1.8
X4.9Y-1.9
X5.Y-1.8
X5.Y-1.9
X5.1Y-1.8
X5.1Y-1.9
X5.2Y-1.8
X5.2Y-1.9
X5.3Y-1.8
X5.3Y-1.9
T4
X5.46Y-3.49
X5.46Y-3.59
X5.46Y-3.69
X5.46Y-3.79
X5.46Y-3.89
X5.56Y-3.49
X5.56Y-3.59
X5.56Y-3.69
X5.56Y-3.79
X5.56Y-3.89
T0
M30
