G04 #@! TF.FileFunction,Copper,L2,Bot,Signal*
%FSLAX46Y46*%
G04 Gerber Fmt 4.6, Leading zero omitted, Abs format (unit mm)*
G04 Created by KiCad (PCBNEW 4.0.7) date 04/04/18 11:57:41*
%MOMM*%
%LPD*%
G01*
G04 APERTURE LIST*
%ADD10C,0.100000*%
%ADD11C,0.300000*%
%ADD12R,1.600000X1.600000*%
%ADD13C,1.600000*%
%ADD14R,5.000000X2.000000*%
%ADD15R,2.000000X5.000000*%
%ADD16C,1.000000*%
%ADD17C,0.500000*%
%ADD18C,0.254000*%
G04 APERTURE END LIST*
D10*
D11*
X213974714Y-111446571D02*
X213974714Y-112518000D01*
X214046142Y-112732286D01*
X214188999Y-112875143D01*
X214403285Y-112946571D01*
X214546142Y-112946571D01*
X213331857Y-112875143D02*
X213189000Y-112946571D01*
X212903285Y-112946571D01*
X212760428Y-112875143D01*
X212689000Y-112732286D01*
X212689000Y-112660857D01*
X212760428Y-112518000D01*
X212903285Y-112446571D01*
X213117571Y-112446571D01*
X213260428Y-112375143D01*
X213331857Y-112232286D01*
X213331857Y-112160857D01*
X213260428Y-112018000D01*
X213117571Y-111946571D01*
X212903285Y-111946571D01*
X212760428Y-112018000D01*
X212046142Y-112946571D02*
X212046142Y-111946571D01*
X212046142Y-111446571D02*
X212117571Y-111518000D01*
X212046142Y-111589429D01*
X211974714Y-111518000D01*
X212046142Y-111446571D01*
X212046142Y-111589429D01*
X211546142Y-111946571D02*
X210974713Y-111946571D01*
X211331856Y-112946571D02*
X211331856Y-111660857D01*
X211260428Y-111518000D01*
X211117570Y-111446571D01*
X210974713Y-111446571D01*
X209260428Y-111446571D02*
X209403285Y-111732286D01*
X207831856Y-112946571D02*
X208688999Y-112946571D01*
X208260427Y-112946571D02*
X208260427Y-111446571D01*
X208403284Y-111660857D01*
X208546142Y-111803714D01*
X208688999Y-111875143D01*
X206974713Y-112089429D02*
X207117571Y-112018000D01*
X207188999Y-111946571D01*
X207260428Y-111803714D01*
X207260428Y-111732286D01*
X207188999Y-111589429D01*
X207117571Y-111518000D01*
X206974713Y-111446571D01*
X206688999Y-111446571D01*
X206546142Y-111518000D01*
X206474713Y-111589429D01*
X206403285Y-111732286D01*
X206403285Y-111803714D01*
X206474713Y-111946571D01*
X206546142Y-112018000D01*
X206688999Y-112089429D01*
X206974713Y-112089429D01*
X207117571Y-112160857D01*
X207188999Y-112232286D01*
X207260428Y-112375143D01*
X207260428Y-112660857D01*
X207188999Y-112803714D01*
X207117571Y-112875143D01*
X206974713Y-112946571D01*
X206688999Y-112946571D01*
X206546142Y-112875143D01*
X206474713Y-112803714D01*
X206403285Y-112660857D01*
X206403285Y-112375143D01*
X206474713Y-112232286D01*
X206546142Y-112160857D01*
X206688999Y-112089429D01*
X200171857Y-114490572D02*
X200171857Y-115633429D01*
X196372943Y-115582628D02*
X196372943Y-114439771D01*
X196944371Y-115011200D02*
X195801514Y-115011200D01*
X193291543Y-120951571D02*
X193362971Y-120737285D01*
X193362971Y-120380142D01*
X193291543Y-120237285D01*
X193220114Y-120165856D01*
X193077257Y-120094428D01*
X192934400Y-120094428D01*
X192791543Y-120165856D01*
X192720114Y-120237285D01*
X192648686Y-120380142D01*
X192577257Y-120665856D01*
X192505829Y-120808714D01*
X192434400Y-120880142D01*
X192291543Y-120951571D01*
X192148686Y-120951571D01*
X192005829Y-120880142D01*
X191934400Y-120808714D01*
X191862971Y-120665856D01*
X191862971Y-120308714D01*
X191934400Y-120094428D01*
X193215343Y-112721971D02*
X193286771Y-112507685D01*
X193286771Y-112150542D01*
X193215343Y-112007685D01*
X193143914Y-111936256D01*
X193001057Y-111864828D01*
X192858200Y-111864828D01*
X192715343Y-111936256D01*
X192643914Y-112007685D01*
X192572486Y-112150542D01*
X192501057Y-112436256D01*
X192429629Y-112579114D01*
X192358200Y-112650542D01*
X192215343Y-112721971D01*
X192072486Y-112721971D01*
X191929629Y-112650542D01*
X191858200Y-112579114D01*
X191786771Y-112436256D01*
X191786771Y-112079114D01*
X191858200Y-111864828D01*
D12*
X198120000Y-115824000D03*
D13*
X198120000Y-113324000D03*
D12*
X203454000Y-119938800D03*
D13*
X203454000Y-117438800D03*
D14*
X192786000Y-114300000D03*
X192786000Y-118364000D03*
D15*
X198120000Y-119380000D03*
X201168000Y-119380000D03*
D16*
X195859400Y-121056400D03*
X198120000Y-115824000D03*
X206324200Y-118414800D03*
X212090000Y-117348000D03*
X213614000Y-117348000D03*
X213614000Y-119126000D03*
X212090000Y-119126000D03*
X210566000Y-119126000D03*
X210566000Y-117348000D03*
X196291200Y-113157000D03*
X196062600Y-116408200D03*
X201168000Y-114554000D03*
D17*
X195859400Y-121056400D02*
X197535800Y-119380000D01*
X197535800Y-119380000D02*
X198120000Y-119380000D01*
X198120000Y-115824000D02*
X198120000Y-119380000D01*
X210566000Y-117348000D02*
X212090000Y-117348000D01*
X213614000Y-117348000D02*
X213614000Y-119126000D01*
X212090000Y-119126000D02*
X210566000Y-119126000D01*
X196291200Y-113157000D02*
X194208400Y-113157000D01*
X194208400Y-113157000D02*
X193065400Y-114300000D01*
X193065400Y-114300000D02*
X192786000Y-114300000D01*
X192786000Y-118364000D02*
X194741800Y-116408200D01*
X194741800Y-116408200D02*
X196062600Y-116408200D01*
X201168000Y-119380000D02*
X201168000Y-114554000D01*
D18*
G36*
X205736572Y-113999000D02*
X214544000Y-113999000D01*
X214544000Y-121544000D01*
X202556464Y-121544000D01*
X202556464Y-121107513D01*
X202654000Y-121127264D01*
X204254000Y-121127264D01*
X204395190Y-121100697D01*
X204524865Y-121017254D01*
X204611859Y-120889934D01*
X204642464Y-120738800D01*
X204642464Y-119138800D01*
X204615897Y-118997610D01*
X204532454Y-118867935D01*
X204405134Y-118780941D01*
X204254000Y-118750336D01*
X204068773Y-118750336D01*
X204208005Y-118692664D01*
X204282139Y-118446545D01*
X203454000Y-117618405D01*
X203439858Y-117632548D01*
X203260252Y-117452942D01*
X203274395Y-117438800D01*
X203633605Y-117438800D01*
X204461745Y-118266939D01*
X204707864Y-118192805D01*
X204900965Y-117655577D01*
X204873778Y-117085346D01*
X204707864Y-116684795D01*
X204461745Y-116610661D01*
X203633605Y-117438800D01*
X203274395Y-117438800D01*
X202449567Y-116613973D01*
X202446454Y-116609135D01*
X202319134Y-116522141D01*
X202168000Y-116491536D01*
X201799000Y-116491536D01*
X201799000Y-116431055D01*
X202625861Y-116431055D01*
X203454000Y-117259195D01*
X204282139Y-116431055D01*
X204208005Y-116184936D01*
X203670777Y-115991835D01*
X203100546Y-116019022D01*
X202699995Y-116184936D01*
X202625861Y-116431055D01*
X201799000Y-116431055D01*
X201799000Y-116371572D01*
X201860000Y-116371572D01*
X201860000Y-115108043D01*
X201914440Y-115053698D01*
X202048847Y-114730011D01*
X202049153Y-114379527D01*
X201915311Y-114055605D01*
X201860000Y-114000198D01*
X201860000Y-113752429D01*
X201534928Y-113752429D01*
X201344011Y-113673153D01*
X200993527Y-113672847D01*
X200800924Y-113752429D01*
X199490889Y-113752429D01*
X199566965Y-113540777D01*
X199539778Y-112970546D01*
X199373864Y-112569995D01*
X199127745Y-112495861D01*
X198299605Y-113324000D01*
X198313748Y-113338142D01*
X198247000Y-113404890D01*
X198247000Y-113017395D01*
X198948139Y-112316255D01*
X198874005Y-112070136D01*
X198336777Y-111877035D01*
X198247000Y-111881315D01*
X198247000Y-111456000D01*
X205736572Y-111456000D01*
X205736572Y-113999000D01*
X205736572Y-113999000D01*
G37*
X205736572Y-113999000D02*
X214544000Y-113999000D01*
X214544000Y-121544000D01*
X202556464Y-121544000D01*
X202556464Y-121107513D01*
X202654000Y-121127264D01*
X204254000Y-121127264D01*
X204395190Y-121100697D01*
X204524865Y-121017254D01*
X204611859Y-120889934D01*
X204642464Y-120738800D01*
X204642464Y-119138800D01*
X204615897Y-118997610D01*
X204532454Y-118867935D01*
X204405134Y-118780941D01*
X204254000Y-118750336D01*
X204068773Y-118750336D01*
X204208005Y-118692664D01*
X204282139Y-118446545D01*
X203454000Y-117618405D01*
X203439858Y-117632548D01*
X203260252Y-117452942D01*
X203274395Y-117438800D01*
X203633605Y-117438800D01*
X204461745Y-118266939D01*
X204707864Y-118192805D01*
X204900965Y-117655577D01*
X204873778Y-117085346D01*
X204707864Y-116684795D01*
X204461745Y-116610661D01*
X203633605Y-117438800D01*
X203274395Y-117438800D01*
X202449567Y-116613973D01*
X202446454Y-116609135D01*
X202319134Y-116522141D01*
X202168000Y-116491536D01*
X201799000Y-116491536D01*
X201799000Y-116431055D01*
X202625861Y-116431055D01*
X203454000Y-117259195D01*
X204282139Y-116431055D01*
X204208005Y-116184936D01*
X203670777Y-115991835D01*
X203100546Y-116019022D01*
X202699995Y-116184936D01*
X202625861Y-116431055D01*
X201799000Y-116431055D01*
X201799000Y-116371572D01*
X201860000Y-116371572D01*
X201860000Y-115108043D01*
X201914440Y-115053698D01*
X202048847Y-114730011D01*
X202049153Y-114379527D01*
X201915311Y-114055605D01*
X201860000Y-114000198D01*
X201860000Y-113752429D01*
X201534928Y-113752429D01*
X201344011Y-113673153D01*
X200993527Y-113672847D01*
X200800924Y-113752429D01*
X199490889Y-113752429D01*
X199566965Y-113540777D01*
X199539778Y-112970546D01*
X199373864Y-112569995D01*
X199127745Y-112495861D01*
X198299605Y-113324000D01*
X198313748Y-113338142D01*
X198247000Y-113404890D01*
X198247000Y-113017395D01*
X198948139Y-112316255D01*
X198874005Y-112070136D01*
X198336777Y-111877035D01*
X198247000Y-111881315D01*
X198247000Y-111456000D01*
X205736572Y-111456000D01*
X205736572Y-113999000D01*
M02*
